<mxfile host="app.diagrams.net" modified="2023-08-01T09:13:35.545Z" agent="Mozilla/5.0 (Windows NT 10.0; Win64; x64) AppleWebKit/537.36 (KHTML, like Gecko) Chrome/114.0.0.0 Safari/537.36" etag="nb7bmcGtm_fVVOaDHlYp" version="21.6.6" type="github">
  <diagram name="‫עמוד-1‬" id="i2Fc2xm11VRdaYwxFgzn">
    <mxGraphModel dx="1687" dy="2033" grid="1" gridSize="10" guides="1" tooltips="1" connect="1" arrows="1" fold="1" page="1" pageScale="1" pageWidth="827" pageHeight="1169" math="0" shadow="0">
      <root>
        <mxCell id="0" />
        <mxCell id="1" parent="0" />
        <mxCell id="d246zdA38Hne-XJqFqv3-175" value="Work Station Dev2" style="group;fillColor=#ffe6cc;strokeColor=#d79b00;" parent="1" vertex="1" connectable="0">
          <mxGeometry x="860" y="830" width="340" height="330" as="geometry" />
        </mxCell>
        <mxCell id="d246zdA38Hne-XJqFqv3-177" value="Tableau Desktop" style="ellipse;whiteSpace=wrap;html=1;aspect=fixed;fillColor=#ffe6cc;strokeColor=#d79b00;" parent="d246zdA38Hne-XJqFqv3-175" vertex="1">
          <mxGeometry x="127.85" y="24.75" width="82.5" height="82.5" as="geometry" />
        </mxCell>
        <mxCell id="d246zdA38Hne-XJqFqv3-178" value="GIT Folder for Tableau_Objects Repository" style="shape=cylinder3;whiteSpace=wrap;html=1;boundedLbl=1;backgroundOutline=1;size=15;fillColor=#ffe6cc;strokeColor=#d79b00;verticalAlign=top;" parent="d246zdA38Hne-XJqFqv3-175" vertex="1">
          <mxGeometry x="8.5" y="156.75" width="323" height="169.125" as="geometry" />
        </mxCell>
        <mxCell id="d246zdA38Hne-XJqFqv3-181" value="" style="group;fillColor=#ffe6cc;strokeColor=#d79b00;" parent="d246zdA38Hne-XJqFqv3-175" vertex="1" connectable="0">
          <mxGeometry x="25.5" y="240.89999999999998" width="272" height="33" as="geometry" />
        </mxCell>
        <mxCell id="d246zdA38Hne-XJqFqv3-182" value="Data Projects" style="rounded=1;whiteSpace=wrap;html=1;fillColor=#ffe6cc;strokeColor=#d79b00;verticalAlign=top;" parent="d246zdA38Hne-XJqFqv3-181" vertex="1">
          <mxGeometry width="272" height="33" as="geometry" />
        </mxCell>
        <mxCell id="yuexsXdvfjhhzSVvDChW-5" value="&lt;font style=&quot;font-size: 8px;&quot;&gt;Dash1&lt;/font&gt;" style="rounded=1;whiteSpace=wrap;html=1;container=0;fillColor=#f5f5f5;fontColor=#333333;strokeColor=#666666;" parent="d246zdA38Hne-XJqFqv3-181" vertex="1">
          <mxGeometry x="3.8500000000000227" y="6.1875" width="42.5" height="20.625" as="geometry" />
        </mxCell>
        <mxCell id="yuexsXdvfjhhzSVvDChW-6" value="&lt;font style=&quot;font-size: 8px;&quot;&gt;Workbook1&lt;/font&gt;" style="rounded=1;whiteSpace=wrap;html=1;container=0;fillColor=#f5f5f5;fontColor=#333333;strokeColor=#666666;" parent="d246zdA38Hne-XJqFqv3-181" vertex="1">
          <mxGeometry x="50.60000000000002" y="6.1875" width="42.5" height="20.625" as="geometry" />
        </mxCell>
        <mxCell id="yuexsXdvfjhhzSVvDChW-7" value="&lt;font style=&quot;font-size: 8px;&quot;&gt;Dash2&lt;/font&gt;" style="rounded=1;whiteSpace=wrap;html=1;container=0;fillColor=#f5f5f5;fontColor=#333333;strokeColor=#666666;" parent="d246zdA38Hne-XJqFqv3-181" vertex="1">
          <mxGeometry x="178.0999999999999" y="6.1875" width="42.5" height="20.625" as="geometry" />
        </mxCell>
        <mxCell id="yuexsXdvfjhhzSVvDChW-8" value="&lt;font style=&quot;font-size: 8px;&quot;&gt;Work2&lt;/font&gt;" style="rounded=1;whiteSpace=wrap;html=1;container=0;fillColor=#f5f5f5;fontColor=#333333;strokeColor=#666666;" parent="d246zdA38Hne-XJqFqv3-181" vertex="1">
          <mxGeometry x="224.8499999999999" y="6.1875" width="42.5" height="20.625" as="geometry" />
        </mxCell>
        <mxCell id="d246zdA38Hne-XJqFqv3-187" value="" style="group;fillColor=#ffe6cc;strokeColor=#d79b00;" parent="d246zdA38Hne-XJqFqv3-175" vertex="1" connectable="0">
          <mxGeometry x="25.5" y="273.9" width="272" height="33" as="geometry" />
        </mxCell>
        <mxCell id="d246zdA38Hne-XJqFqv3-188" value="External" style="rounded=1;whiteSpace=wrap;html=1;fillColor=#ffe6cc;strokeColor=#d79b00;verticalAlign=top;" parent="d246zdA38Hne-XJqFqv3-187" vertex="1">
          <mxGeometry width="272" height="33" as="geometry" />
        </mxCell>
        <mxCell id="yuexsXdvfjhhzSVvDChW-9" value="&lt;font style=&quot;font-size: 8px;&quot;&gt;Dash1&lt;/font&gt;" style="rounded=1;whiteSpace=wrap;html=1;container=0;fillColor=#f5f5f5;fontColor=#333333;strokeColor=#666666;" parent="d246zdA38Hne-XJqFqv3-187" vertex="1">
          <mxGeometry x="4.190000000000055" y="6.1875" width="42.5" height="20.625" as="geometry" />
        </mxCell>
        <mxCell id="yuexsXdvfjhhzSVvDChW-10" value="&lt;font style=&quot;font-size: 8px;&quot;&gt;Workbook1&lt;/font&gt;" style="rounded=1;whiteSpace=wrap;html=1;container=0;fillColor=#f5f5f5;fontColor=#333333;strokeColor=#666666;" parent="d246zdA38Hne-XJqFqv3-187" vertex="1">
          <mxGeometry x="50.940000000000055" y="6.1875" width="42.5" height="20.625" as="geometry" />
        </mxCell>
        <mxCell id="yuexsXdvfjhhzSVvDChW-11" value="&lt;font style=&quot;font-size: 8px;&quot;&gt;Dash2&lt;/font&gt;" style="rounded=1;whiteSpace=wrap;html=1;container=0;fillColor=#f5f5f5;fontColor=#333333;strokeColor=#666666;" parent="d246zdA38Hne-XJqFqv3-187" vertex="1">
          <mxGeometry x="178.44000000000005" y="6.1875" width="42.5" height="20.625" as="geometry" />
        </mxCell>
        <mxCell id="yuexsXdvfjhhzSVvDChW-12" value="&lt;font style=&quot;font-size: 8px;&quot;&gt;Work2&lt;/font&gt;" style="rounded=1;whiteSpace=wrap;html=1;container=0;fillColor=#f5f5f5;fontColor=#333333;strokeColor=#666666;" parent="d246zdA38Hne-XJqFqv3-187" vertex="1">
          <mxGeometry x="225.19000000000005" y="6.1875" width="42.5" height="20.625" as="geometry" />
        </mxCell>
        <mxCell id="d246zdA38Hne-XJqFqv3-193" value="" style="group;fillColor=#ffe6cc;strokeColor=#d79b00;" parent="d246zdA38Hne-XJqFqv3-175" vertex="1" connectable="0">
          <mxGeometry x="25.5" y="207.89999999999998" width="272" height="33" as="geometry" />
        </mxCell>
        <mxCell id="d246zdA38Hne-XJqFqv3-194" value="Data Sources" style="rounded=1;whiteSpace=wrap;html=1;fillColor=#ffe6cc;strokeColor=#d79b00;verticalAlign=top;" parent="d246zdA38Hne-XJqFqv3-193" vertex="1">
          <mxGeometry width="272" height="33" as="geometry" />
        </mxCell>
        <mxCell id="yuexsXdvfjhhzSVvDChW-1" value="&lt;font style=&quot;font-size: 8px;&quot;&gt;ds1&lt;/font&gt;" style="rounded=1;whiteSpace=wrap;html=1;container=0;fillColor=#f5f5f5;fontColor=#333333;strokeColor=#666666;" parent="d246zdA38Hne-XJqFqv3-193" vertex="1">
          <mxGeometry x="4.190000000000055" y="6.1875" width="42.5" height="20.625" as="geometry" />
        </mxCell>
        <mxCell id="yuexsXdvfjhhzSVvDChW-2" value="&lt;font style=&quot;font-size: 8px;&quot;&gt;ds2&lt;/font&gt;" style="rounded=1;whiteSpace=wrap;html=1;container=0;fillColor=#f5f5f5;fontColor=#333333;strokeColor=#666666;" parent="d246zdA38Hne-XJqFqv3-193" vertex="1">
          <mxGeometry x="50.940000000000055" y="6.1875" width="42.5" height="20.625" as="geometry" />
        </mxCell>
        <mxCell id="yuexsXdvfjhhzSVvDChW-3" value="&lt;font style=&quot;font-size: 8px;&quot;&gt;ds3&lt;/font&gt;" style="rounded=1;whiteSpace=wrap;html=1;container=0;fillColor=#f5f5f5;fontColor=#333333;strokeColor=#666666;" parent="d246zdA38Hne-XJqFqv3-193" vertex="1">
          <mxGeometry x="178.44000000000005" y="6.1875" width="42.5" height="20.625" as="geometry" />
        </mxCell>
        <mxCell id="yuexsXdvfjhhzSVvDChW-4" value="&lt;font style=&quot;font-size: 8px;&quot;&gt;ds4&lt;/font&gt;" style="rounded=1;whiteSpace=wrap;html=1;container=0;fillColor=#f5f5f5;fontColor=#333333;strokeColor=#666666;" parent="d246zdA38Hne-XJqFqv3-193" vertex="1">
          <mxGeometry x="225.19000000000005" y="6.1875" width="42.5" height="20.625" as="geometry" />
        </mxCell>
        <mxCell id="yuexsXdvfjhhzSVvDChW-15" value="" style="endArrow=classic;startArrow=classic;html=1;rounded=0;entryX=0.5;entryY=1;entryDx=0;entryDy=0;exitX=0.5;exitY=0;exitDx=0;exitDy=0;exitPerimeter=0;fillColor=#ffe6cc;strokeColor=#d79b00;" parent="d246zdA38Hne-XJqFqv3-175" source="d246zdA38Hne-XJqFqv3-178" target="d246zdA38Hne-XJqFqv3-177" edge="1">
          <mxGeometry width="50" height="50" relative="1" as="geometry">
            <mxPoint x="60" y="220" as="sourcePoint" />
            <mxPoint x="110" y="170" as="targetPoint" />
          </mxGeometry>
        </mxCell>
        <mxCell id="yuexsXdvfjhhzSVvDChW-18" value="GIT Commit" style="text;html=1;strokeColor=none;fillColor=none;align=center;verticalAlign=middle;whiteSpace=wrap;rounded=0;rotation=0;" parent="d246zdA38Hne-XJqFqv3-175" vertex="1">
          <mxGeometry x="130.85000000000002" y="156.75" width="81.5" height="30" as="geometry" />
        </mxCell>
        <mxCell id="d246zdA38Hne-XJqFqv3-199" value="" style="group" parent="1" vertex="1" connectable="0">
          <mxGeometry x="460" y="830" width="340" height="330" as="geometry" />
        </mxCell>
        <mxCell id="d246zdA38Hne-XJqFqv3-200" value="&lt;b style=&quot;border-color: var(--border-color);&quot;&gt;&lt;font style=&quot;border-color: var(--border-color); font-size: 14px;&quot;&gt;Work Station Dev1&lt;/font&gt;&lt;/b&gt;" style="whiteSpace=wrap;html=1;aspect=fixed;verticalAlign=top;fillColor=#dae8fc;strokeColor=#6c8ebf;" parent="d246zdA38Hne-XJqFqv3-199" vertex="1">
          <mxGeometry width="330" height="330" as="geometry" />
        </mxCell>
        <mxCell id="d246zdA38Hne-XJqFqv3-201" value="Tableau Desktop" style="ellipse;whiteSpace=wrap;html=1;aspect=fixed;fillColor=#dae8fc;strokeColor=#6c8ebf;" parent="d246zdA38Hne-XJqFqv3-199" vertex="1">
          <mxGeometry x="129.85000000000002" y="24.75" width="82.5" height="82.5" as="geometry" />
        </mxCell>
        <mxCell id="d246zdA38Hne-XJqFqv3-202" value="GIT Folder for Tableau_Objects Repository" style="shape=cylinder3;whiteSpace=wrap;html=1;boundedLbl=1;backgroundOutline=1;size=15;fillColor=#dae8fc;strokeColor=#6c8ebf;verticalAlign=top;" parent="d246zdA38Hne-XJqFqv3-199" vertex="1">
          <mxGeometry x="8.5" y="156.75" width="323" height="169.125" as="geometry" />
        </mxCell>
        <mxCell id="d246zdA38Hne-XJqFqv3-205" value="" style="group" parent="d246zdA38Hne-XJqFqv3-199" vertex="1" connectable="0">
          <mxGeometry x="25.5" y="240.9" width="272" height="33" as="geometry" />
        </mxCell>
        <mxCell id="d246zdA38Hne-XJqFqv3-206" value="&lt;font style=&quot;font-size: 10px;&quot;&gt;Data Projects&lt;/font&gt;" style="rounded=1;whiteSpace=wrap;html=1;fillColor=#dae8fc;strokeColor=#6c8ebf;verticalAlign=top;" parent="d246zdA38Hne-XJqFqv3-205" vertex="1">
          <mxGeometry width="272" height="33" as="geometry" />
        </mxCell>
        <mxCell id="d246zdA38Hne-XJqFqv3-207" value="&lt;font style=&quot;font-size: 8px;&quot;&gt;Dash1&lt;/font&gt;" style="rounded=1;whiteSpace=wrap;html=1;container=0;fillColor=#f5f5f5;fontColor=#333333;strokeColor=#666666;" parent="d246zdA38Hne-XJqFqv3-205" vertex="1">
          <mxGeometry x="5.1000000000000005" y="6.1875" width="42.5" height="20.625" as="geometry" />
        </mxCell>
        <mxCell id="d246zdA38Hne-XJqFqv3-208" value="&lt;font style=&quot;font-size: 8px;&quot;&gt;Workbook1&lt;/font&gt;" style="rounded=1;whiteSpace=wrap;html=1;container=0;fillColor=#f5f5f5;fontColor=#333333;strokeColor=#666666;" parent="d246zdA38Hne-XJqFqv3-205" vertex="1">
          <mxGeometry x="51.85000000000001" y="6.1875" width="42.5" height="20.625" as="geometry" />
        </mxCell>
        <mxCell id="d246zdA38Hne-XJqFqv3-209" value="&lt;font style=&quot;font-size: 8px;&quot;&gt;Dash2&lt;/font&gt;" style="rounded=1;whiteSpace=wrap;html=1;container=0;fillColor=#f5f5f5;fontColor=#333333;strokeColor=#666666;" parent="d246zdA38Hne-XJqFqv3-205" vertex="1">
          <mxGeometry x="179.35000000000002" y="6.1875" width="42.5" height="20.625" as="geometry" />
        </mxCell>
        <mxCell id="d246zdA38Hne-XJqFqv3-210" value="&lt;font style=&quot;font-size: 8px;&quot;&gt;Work2&lt;/font&gt;" style="rounded=1;whiteSpace=wrap;html=1;container=0;fillColor=#f5f5f5;fontColor=#333333;strokeColor=#666666;" parent="d246zdA38Hne-XJqFqv3-205" vertex="1">
          <mxGeometry x="226.10000000000002" y="6.1875" width="42.5" height="20.625" as="geometry" />
        </mxCell>
        <mxCell id="d246zdA38Hne-XJqFqv3-211" value="" style="group" parent="d246zdA38Hne-XJqFqv3-199" vertex="1" connectable="0">
          <mxGeometry x="25.5" y="273.9" width="272" height="33" as="geometry" />
        </mxCell>
        <mxCell id="d246zdA38Hne-XJqFqv3-212" value="&lt;font style=&quot;font-size: 10px;&quot;&gt;External&lt;/font&gt;" style="rounded=1;whiteSpace=wrap;html=1;fillColor=#dae8fc;strokeColor=#6c8ebf;verticalAlign=top;" parent="d246zdA38Hne-XJqFqv3-211" vertex="1">
          <mxGeometry width="272" height="33" as="geometry" />
        </mxCell>
        <mxCell id="d246zdA38Hne-XJqFqv3-213" value="&lt;font style=&quot;font-size: 8px;&quot;&gt;Dash1&lt;/font&gt;" style="rounded=1;whiteSpace=wrap;html=1;container=0;fillColor=#f5f5f5;fontColor=#333333;strokeColor=#666666;" parent="d246zdA38Hne-XJqFqv3-211" vertex="1">
          <mxGeometry x="5.1000000000000005" y="6.1875" width="42.5" height="20.625" as="geometry" />
        </mxCell>
        <mxCell id="d246zdA38Hne-XJqFqv3-214" value="&lt;font style=&quot;font-size: 8px;&quot;&gt;Workbook1&lt;/font&gt;" style="rounded=1;whiteSpace=wrap;html=1;container=0;fillColor=#f5f5f5;fontColor=#333333;strokeColor=#666666;" parent="d246zdA38Hne-XJqFqv3-211" vertex="1">
          <mxGeometry x="51.85000000000001" y="6.1875" width="42.5" height="20.625" as="geometry" />
        </mxCell>
        <mxCell id="d246zdA38Hne-XJqFqv3-215" value="&lt;font style=&quot;font-size: 8px;&quot;&gt;Dash2&lt;/font&gt;" style="rounded=1;whiteSpace=wrap;html=1;container=0;fillColor=#f5f5f5;fontColor=#333333;strokeColor=#666666;" parent="d246zdA38Hne-XJqFqv3-211" vertex="1">
          <mxGeometry x="179.35000000000002" y="6.1875" width="42.5" height="20.625" as="geometry" />
        </mxCell>
        <mxCell id="d246zdA38Hne-XJqFqv3-216" value="&lt;font style=&quot;font-size: 8px;&quot;&gt;Work2&lt;/font&gt;" style="rounded=1;whiteSpace=wrap;html=1;container=0;fillColor=#f5f5f5;fontColor=#333333;strokeColor=#666666;" parent="d246zdA38Hne-XJqFqv3-211" vertex="1">
          <mxGeometry x="226.10000000000002" y="6.1875" width="42.5" height="20.625" as="geometry" />
        </mxCell>
        <mxCell id="d246zdA38Hne-XJqFqv3-217" value="" style="group" parent="d246zdA38Hne-XJqFqv3-199" vertex="1" connectable="0">
          <mxGeometry x="25.5" y="207.9" width="272" height="33" as="geometry" />
        </mxCell>
        <mxCell id="d246zdA38Hne-XJqFqv3-218" value="&lt;font style=&quot;font-size: 10px;&quot;&gt;Data Sources&lt;/font&gt;" style="rounded=1;whiteSpace=wrap;html=1;fillColor=#dae8fc;strokeColor=#6c8ebf;verticalAlign=top;" parent="d246zdA38Hne-XJqFqv3-217" vertex="1">
          <mxGeometry width="272" height="33" as="geometry" />
        </mxCell>
        <mxCell id="d246zdA38Hne-XJqFqv3-219" value="&lt;font style=&quot;font-size: 8px;&quot;&gt;ds1&lt;/font&gt;" style="rounded=1;whiteSpace=wrap;html=1;container=0;fillColor=#f5f5f5;fontColor=#333333;strokeColor=#666666;" parent="d246zdA38Hne-XJqFqv3-217" vertex="1">
          <mxGeometry x="5.1000000000000005" y="6.1875" width="42.5" height="20.625" as="geometry" />
        </mxCell>
        <mxCell id="d246zdA38Hne-XJqFqv3-220" value="&lt;font style=&quot;font-size: 8px;&quot;&gt;ds2&lt;/font&gt;" style="rounded=1;whiteSpace=wrap;html=1;container=0;fillColor=#f5f5f5;fontColor=#333333;strokeColor=#666666;" parent="d246zdA38Hne-XJqFqv3-217" vertex="1">
          <mxGeometry x="51.85000000000001" y="6.1875" width="42.5" height="20.625" as="geometry" />
        </mxCell>
        <mxCell id="d246zdA38Hne-XJqFqv3-221" value="&lt;font style=&quot;font-size: 8px;&quot;&gt;ds3&lt;/font&gt;" style="rounded=1;whiteSpace=wrap;html=1;container=0;fillColor=#f5f5f5;fontColor=#333333;strokeColor=#666666;" parent="d246zdA38Hne-XJqFqv3-217" vertex="1">
          <mxGeometry x="179.35000000000002" y="6.1875" width="42.5" height="20.625" as="geometry" />
        </mxCell>
        <mxCell id="d246zdA38Hne-XJqFqv3-222" value="&lt;font style=&quot;font-size: 8px;&quot;&gt;ds4&lt;/font&gt;" style="rounded=1;whiteSpace=wrap;html=1;container=0;fillColor=#f5f5f5;fontColor=#333333;strokeColor=#666666;" parent="d246zdA38Hne-XJqFqv3-217" vertex="1">
          <mxGeometry x="226.10000000000002" y="6.1875" width="42.5" height="20.625" as="geometry" />
        </mxCell>
        <mxCell id="yuexsXdvfjhhzSVvDChW-16" value="" style="endArrow=classic;startArrow=classic;html=1;rounded=0;entryX=0.5;entryY=1;entryDx=0;entryDy=0;fillColor=#dae8fc;strokeColor=#6c8ebf;" parent="d246zdA38Hne-XJqFqv3-199" source="d246zdA38Hne-XJqFqv3-202" target="d246zdA38Hne-XJqFqv3-201" edge="1">
          <mxGeometry width="50" height="50" relative="1" as="geometry">
            <mxPoint x="460" y="220" as="sourcePoint" />
            <mxPoint x="170" y="100" as="targetPoint" />
          </mxGeometry>
        </mxCell>
        <mxCell id="yuexsXdvfjhhzSVvDChW-17" value="GIT Commit" style="text;html=1;strokeColor=none;fillColor=none;align=center;verticalAlign=middle;whiteSpace=wrap;rounded=0;rotation=0;" parent="d246zdA38Hne-XJqFqv3-199" vertex="1">
          <mxGeometry x="132" y="156.25" width="81.5" height="30" as="geometry" />
        </mxCell>
        <mxCell id="d246zdA38Hne-XJqFqv3-269" value="GIT Push" style="text;html=1;strokeColor=none;fillColor=none;align=center;verticalAlign=middle;whiteSpace=wrap;rounded=0;rotation=0;" parent="1" vertex="1">
          <mxGeometry x="311.25" y="790" width="76" height="20" as="geometry" />
        </mxCell>
        <mxCell id="d246zdA38Hne-XJqFqv3-284" value="1" style="ellipse;whiteSpace=wrap;html=1;aspect=fixed;fillColor=#dae8fc;strokeColor=#6c8ebf;" parent="1" vertex="1">
          <mxGeometry x="332" y="774.005" width="16.5" height="16.5" as="geometry" />
        </mxCell>
        <mxCell id="d246zdA38Hne-XJqFqv3-300" value="1" style="ellipse;whiteSpace=wrap;html=1;aspect=fixed;fillColor=#fff2cc;strokeColor=#d6b656;" parent="1" vertex="1">
          <mxGeometry x="1392" y="752.995" width="16.5" height="16.5" as="geometry" />
        </mxCell>
        <mxCell id="yuexsXdvfjhhzSVvDChW-62" style="edgeStyle=orthogonalEdgeStyle;rounded=0;orthogonalLoop=1;jettySize=auto;html=1;entryX=0;entryY=0.5;entryDx=0;entryDy=0;fillColor=#dae8fc;strokeColor=#6c8ebf;" parent="1" source="d246zdA38Hne-XJqFqv3-219" target="yuexsXdvfjhhzSVvDChW-56" edge="1">
          <mxGeometry relative="1" as="geometry">
            <mxPoint x="470" y="510" as="targetPoint" />
            <Array as="points">
              <mxPoint x="350" y="1054" />
              <mxPoint x="350" y="490" />
              <mxPoint x="530" y="490" />
              <mxPoint x="530" y="492" />
            </Array>
          </mxGeometry>
        </mxCell>
        <mxCell id="yuexsXdvfjhhzSVvDChW-63" style="edgeStyle=orthogonalEdgeStyle;rounded=0;orthogonalLoop=1;jettySize=auto;html=1;entryX=1;entryY=0.25;entryDx=0;entryDy=0;fillColor=#ffe6cc;strokeColor=#d79b00;" parent="1" source="yuexsXdvfjhhzSVvDChW-4" target="yuexsXdvfjhhzSVvDChW-37" edge="1">
          <mxGeometry relative="1" as="geometry">
            <mxPoint x="1410" y="520" as="targetPoint" />
            <Array as="points">
              <mxPoint x="1390" y="1054" />
              <mxPoint x="1390" y="480" />
              <mxPoint x="1155" y="480" />
            </Array>
          </mxGeometry>
        </mxCell>
        <mxCell id="yuexsXdvfjhhzSVvDChW-64" value="GIT Push" style="text;html=1;strokeColor=none;fillColor=none;align=center;verticalAlign=middle;whiteSpace=wrap;rounded=0;rotation=0;" parent="1" vertex="1">
          <mxGeometry x="1350.5" y="770.01" width="76" height="20" as="geometry" />
        </mxCell>
        <mxCell id="d246zdA38Hne-XJqFqv3-11" value="&lt;b&gt;&lt;font style=&quot;font-size: 16px;&quot;&gt;GIT Remote Repository&lt;br&gt;Tableau_Objects&lt;br&gt;&lt;/font&gt;&lt;/b&gt;" style="rounded=1;whiteSpace=wrap;html=1;fillColor=#d5e8d4;strokeColor=#82b366;direction=south;verticalAlign=top;" parent="1" vertex="1">
          <mxGeometry x="490" y="-370" width="710" height="1030" as="geometry" />
        </mxCell>
        <mxCell id="r5iFqAWKlbIohHAniu_M-5" value="" style="endArrow=none;dashed=1;html=1;rounded=0;exitX=0.5;exitY=1;exitDx=0;exitDy=0;entryX=0.5;entryY=0;entryDx=0;entryDy=0;" parent="1" edge="1">
          <mxGeometry width="50" height="50" relative="1" as="geometry">
            <mxPoint x="492" y="390" as="sourcePoint" />
            <mxPoint x="1212" y="390" as="targetPoint" />
          </mxGeometry>
        </mxCell>
        <mxCell id="yuexsXdvfjhhzSVvDChW-19" value="GIT Folder for Tableau_Objects Repository" style="shape=cylinder3;whiteSpace=wrap;html=1;boundedLbl=1;backgroundOutline=1;size=15;fillColor=#ffe6cc;strokeColor=#d79b00;verticalAlign=top;" parent="1" vertex="1">
          <mxGeometry x="862" y="413.0612244897959" width="323" height="189.8341836734694" as="geometry" />
        </mxCell>
        <mxCell id="yuexsXdvfjhhzSVvDChW-20" value="" style="group;fillColor=#ffe6cc;strokeColor=#d79b00;" parent="1" vertex="1" connectable="0">
          <mxGeometry x="887" y="507.5153061224491" width="272" height="37.04081632653061" as="geometry" />
        </mxCell>
        <mxCell id="yuexsXdvfjhhzSVvDChW-21" value="Data Projects" style="rounded=1;whiteSpace=wrap;html=1;fillColor=#ffe6cc;strokeColor=#d79b00;verticalAlign=top;" parent="yuexsXdvfjhhzSVvDChW-20" vertex="1">
          <mxGeometry width="272" height="37.04081632653061" as="geometry" />
        </mxCell>
        <mxCell id="yuexsXdvfjhhzSVvDChW-22" value="&lt;font style=&quot;font-size: 8px;&quot;&gt;Dash1&lt;/font&gt;" style="rounded=1;whiteSpace=wrap;html=1;container=0;fillColor=#f5f5f5;fontColor=#333333;strokeColor=#666666;" parent="yuexsXdvfjhhzSVvDChW-20" vertex="1">
          <mxGeometry x="3.8500000000000227" y="6.94515306122449" width="42.5" height="23.15051020408163" as="geometry" />
        </mxCell>
        <mxCell id="yuexsXdvfjhhzSVvDChW-23" value="&lt;font style=&quot;font-size: 8px;&quot;&gt;Workbook1&lt;/font&gt;" style="rounded=1;whiteSpace=wrap;html=1;container=0;fillColor=#f5f5f5;fontColor=#333333;strokeColor=#666666;" parent="yuexsXdvfjhhzSVvDChW-20" vertex="1">
          <mxGeometry x="50.60000000000002" y="6.94515306122449" width="42.5" height="23.15051020408163" as="geometry" />
        </mxCell>
        <mxCell id="yuexsXdvfjhhzSVvDChW-24" value="&lt;font style=&quot;font-size: 8px;&quot;&gt;Dash2&lt;/font&gt;" style="rounded=1;whiteSpace=wrap;html=1;container=0;fillColor=#f5f5f5;fontColor=#333333;strokeColor=#666666;" parent="yuexsXdvfjhhzSVvDChW-20" vertex="1">
          <mxGeometry x="178.0999999999999" y="6.94515306122449" width="42.5" height="23.15051020408163" as="geometry" />
        </mxCell>
        <mxCell id="yuexsXdvfjhhzSVvDChW-25" value="&lt;font style=&quot;font-size: 8px;&quot;&gt;Work2&lt;/font&gt;" style="rounded=1;whiteSpace=wrap;html=1;container=0;fillColor=#f5f5f5;fontColor=#333333;strokeColor=#666666;" parent="yuexsXdvfjhhzSVvDChW-20" vertex="1">
          <mxGeometry x="224.8499999999999" y="6.94515306122449" width="42.5" height="23.15051020408163" as="geometry" />
        </mxCell>
        <mxCell id="yuexsXdvfjhhzSVvDChW-26" value="" style="group;fillColor=#ffe6cc;strokeColor=#d79b00;" parent="1" vertex="1" connectable="0">
          <mxGeometry x="887" y="544.5561224489796" width="272" height="37.04081632653061" as="geometry" />
        </mxCell>
        <mxCell id="yuexsXdvfjhhzSVvDChW-27" value="External" style="rounded=1;whiteSpace=wrap;html=1;fillColor=#ffe6cc;strokeColor=#d79b00;verticalAlign=top;" parent="yuexsXdvfjhhzSVvDChW-26" vertex="1">
          <mxGeometry width="272" height="37.04081632653061" as="geometry" />
        </mxCell>
        <mxCell id="yuexsXdvfjhhzSVvDChW-28" value="&lt;font style=&quot;font-size: 8px;&quot;&gt;Dash1&lt;/font&gt;" style="rounded=1;whiteSpace=wrap;html=1;container=0;fillColor=#f5f5f5;fontColor=#333333;strokeColor=#666666;" parent="yuexsXdvfjhhzSVvDChW-26" vertex="1">
          <mxGeometry x="4.190000000000055" y="6.94515306122449" width="42.5" height="23.15051020408163" as="geometry" />
        </mxCell>
        <mxCell id="yuexsXdvfjhhzSVvDChW-29" value="&lt;font style=&quot;font-size: 8px;&quot;&gt;Workbook1&lt;/font&gt;" style="rounded=1;whiteSpace=wrap;html=1;container=0;fillColor=#f5f5f5;fontColor=#333333;strokeColor=#666666;" parent="yuexsXdvfjhhzSVvDChW-26" vertex="1">
          <mxGeometry x="50.940000000000055" y="6.94515306122449" width="42.5" height="23.15051020408163" as="geometry" />
        </mxCell>
        <mxCell id="yuexsXdvfjhhzSVvDChW-30" value="&lt;font style=&quot;font-size: 8px;&quot;&gt;Dash2&lt;/font&gt;" style="rounded=1;whiteSpace=wrap;html=1;container=0;fillColor=#f5f5f5;fontColor=#333333;strokeColor=#666666;" parent="yuexsXdvfjhhzSVvDChW-26" vertex="1">
          <mxGeometry x="178.44000000000005" y="6.94515306122449" width="42.5" height="23.15051020408163" as="geometry" />
        </mxCell>
        <mxCell id="yuexsXdvfjhhzSVvDChW-31" value="&lt;font style=&quot;font-size: 8px;&quot;&gt;Work2&lt;/font&gt;" style="rounded=1;whiteSpace=wrap;html=1;container=0;fillColor=#f5f5f5;fontColor=#333333;strokeColor=#666666;" parent="yuexsXdvfjhhzSVvDChW-26" vertex="1">
          <mxGeometry x="225.19000000000005" y="6.94515306122449" width="42.5" height="23.15051020408163" as="geometry" />
        </mxCell>
        <mxCell id="yuexsXdvfjhhzSVvDChW-32" value="" style="group;fillColor=#ffe6cc;strokeColor=#d79b00;" parent="1" vertex="1" connectable="0">
          <mxGeometry x="887" y="470.47448979591843" width="272" height="37.04081632653061" as="geometry" />
        </mxCell>
        <mxCell id="yuexsXdvfjhhzSVvDChW-33" value="Data Sources" style="rounded=1;whiteSpace=wrap;html=1;fillColor=#ffe6cc;strokeColor=#d79b00;verticalAlign=top;" parent="yuexsXdvfjhhzSVvDChW-32" vertex="1">
          <mxGeometry width="272" height="37.04081632653061" as="geometry" />
        </mxCell>
        <mxCell id="yuexsXdvfjhhzSVvDChW-34" value="&lt;font style=&quot;font-size: 8px;&quot;&gt;ds1&lt;/font&gt;" style="rounded=1;whiteSpace=wrap;html=1;container=0;fillColor=#f5f5f5;fontColor=#333333;strokeColor=#666666;" parent="yuexsXdvfjhhzSVvDChW-32" vertex="1">
          <mxGeometry x="4.190000000000055" y="6.94515306122449" width="42.5" height="23.15051020408163" as="geometry" />
        </mxCell>
        <mxCell id="yuexsXdvfjhhzSVvDChW-35" value="&lt;font style=&quot;font-size: 8px;&quot;&gt;ds2&lt;/font&gt;" style="rounded=1;whiteSpace=wrap;html=1;container=0;fillColor=#f5f5f5;fontColor=#333333;strokeColor=#666666;" parent="yuexsXdvfjhhzSVvDChW-32" vertex="1">
          <mxGeometry x="50.940000000000055" y="6.94515306122449" width="42.5" height="23.15051020408163" as="geometry" />
        </mxCell>
        <mxCell id="yuexsXdvfjhhzSVvDChW-36" value="&lt;font style=&quot;font-size: 8px;&quot;&gt;ds3&lt;/font&gt;" style="rounded=1;whiteSpace=wrap;html=1;container=0;fillColor=#f5f5f5;fontColor=#333333;strokeColor=#666666;" parent="yuexsXdvfjhhzSVvDChW-32" vertex="1">
          <mxGeometry x="178.44000000000005" y="6.94515306122449" width="42.5" height="23.15051020408163" as="geometry" />
        </mxCell>
        <mxCell id="yuexsXdvfjhhzSVvDChW-37" value="&lt;font style=&quot;font-size: 8px;&quot;&gt;ds4&lt;/font&gt;" style="rounded=1;whiteSpace=wrap;html=1;container=0;fillColor=#f5f5f5;fontColor=#333333;strokeColor=#666666;" parent="yuexsXdvfjhhzSVvDChW-32" vertex="1">
          <mxGeometry x="225.19000000000005" y="6.94515306122449" width="42.5" height="23.15051020408163" as="geometry" />
        </mxCell>
        <mxCell id="yuexsXdvfjhhzSVvDChW-38" value="&lt;b&gt;GIT Dev2 Branch&lt;/b&gt;" style="text;html=1;strokeColor=none;fillColor=none;align=center;verticalAlign=middle;whiteSpace=wrap;rounded=0;rotation=0;" parent="1" vertex="1">
          <mxGeometry x="959" y="413.0612244897959" width="130" height="33.6734693877551" as="geometry" />
        </mxCell>
        <mxCell id="yuexsXdvfjhhzSVvDChW-61" value="" style="group" parent="1" vertex="1" connectable="0">
          <mxGeometry x="505" y="416.42857142857144" width="327" height="190.81632653061226" as="geometry" />
        </mxCell>
        <mxCell id="yuexsXdvfjhhzSVvDChW-41" value="GIT Folder for Tableau_Objects Repository" style="shape=cylinder3;whiteSpace=wrap;html=1;boundedLbl=1;backgroundOutline=1;size=15;fillColor=#dae8fc;strokeColor=#6c8ebf;verticalAlign=top;" parent="yuexsXdvfjhhzSVvDChW-61" vertex="1">
          <mxGeometry width="327" height="190.81632653061226" as="geometry" />
        </mxCell>
        <mxCell id="yuexsXdvfjhhzSVvDChW-42" value="" style="group;fillColor=#dae8fc;strokeColor=#6c8ebf;" parent="yuexsXdvfjhhzSVvDChW-61" vertex="1" connectable="0">
          <mxGeometry x="25" y="94.45408163265317" width="272" height="37.04081632653061" as="geometry" />
        </mxCell>
        <mxCell id="yuexsXdvfjhhzSVvDChW-43" value="Data Projects" style="rounded=1;whiteSpace=wrap;html=1;fillColor=#dae8fc;strokeColor=#6c8ebf;verticalAlign=top;" parent="yuexsXdvfjhhzSVvDChW-42" vertex="1">
          <mxGeometry width="272" height="37.04081632653061" as="geometry" />
        </mxCell>
        <mxCell id="yuexsXdvfjhhzSVvDChW-44" value="&lt;font style=&quot;font-size: 8px;&quot;&gt;Dash1&lt;/font&gt;" style="rounded=1;whiteSpace=wrap;html=1;container=0;fillColor=#f5f5f5;fontColor=#333333;strokeColor=#666666;" parent="yuexsXdvfjhhzSVvDChW-42" vertex="1">
          <mxGeometry x="3.8500000000000227" y="6.94515306122449" width="42.5" height="23.15051020408163" as="geometry" />
        </mxCell>
        <mxCell id="yuexsXdvfjhhzSVvDChW-45" value="&lt;font style=&quot;font-size: 8px;&quot;&gt;Workbook1&lt;/font&gt;" style="rounded=1;whiteSpace=wrap;html=1;container=0;fillColor=#f5f5f5;fontColor=#333333;strokeColor=#666666;" parent="yuexsXdvfjhhzSVvDChW-42" vertex="1">
          <mxGeometry x="50.60000000000002" y="6.94515306122449" width="42.5" height="23.15051020408163" as="geometry" />
        </mxCell>
        <mxCell id="yuexsXdvfjhhzSVvDChW-46" value="&lt;font style=&quot;font-size: 8px;&quot;&gt;Dash2&lt;/font&gt;" style="rounded=1;whiteSpace=wrap;html=1;container=0;fillColor=#f5f5f5;fontColor=#333333;strokeColor=#666666;" parent="yuexsXdvfjhhzSVvDChW-42" vertex="1">
          <mxGeometry x="178.0999999999999" y="6.94515306122449" width="42.5" height="23.15051020408163" as="geometry" />
        </mxCell>
        <mxCell id="yuexsXdvfjhhzSVvDChW-47" value="&lt;font style=&quot;font-size: 8px;&quot;&gt;Work2&lt;/font&gt;" style="rounded=1;whiteSpace=wrap;html=1;container=0;fillColor=#f5f5f5;fontColor=#333333;strokeColor=#666666;" parent="yuexsXdvfjhhzSVvDChW-42" vertex="1">
          <mxGeometry x="224.8499999999999" y="6.94515306122449" width="42.5" height="23.15051020408163" as="geometry" />
        </mxCell>
        <mxCell id="yuexsXdvfjhhzSVvDChW-48" value="" style="group;fillColor=#dae8fc;strokeColor=#6c8ebf;" parent="yuexsXdvfjhhzSVvDChW-61" vertex="1" connectable="0">
          <mxGeometry x="25" y="131.49489795918376" width="272" height="37.04081632653061" as="geometry" />
        </mxCell>
        <mxCell id="yuexsXdvfjhhzSVvDChW-49" value="External" style="rounded=1;whiteSpace=wrap;html=1;fillColor=#dae8fc;strokeColor=#6c8ebf;verticalAlign=top;" parent="yuexsXdvfjhhzSVvDChW-48" vertex="1">
          <mxGeometry width="272" height="37.04081632653061" as="geometry" />
        </mxCell>
        <mxCell id="yuexsXdvfjhhzSVvDChW-50" value="&lt;font style=&quot;font-size: 8px;&quot;&gt;Dash1&lt;/font&gt;" style="rounded=1;whiteSpace=wrap;html=1;container=0;fillColor=#f5f5f5;fontColor=#333333;strokeColor=#666666;" parent="yuexsXdvfjhhzSVvDChW-48" vertex="1">
          <mxGeometry x="4.190000000000055" y="6.94515306122449" width="42.5" height="23.15051020408163" as="geometry" />
        </mxCell>
        <mxCell id="yuexsXdvfjhhzSVvDChW-51" value="&lt;font style=&quot;font-size: 8px;&quot;&gt;Workbook1&lt;/font&gt;" style="rounded=1;whiteSpace=wrap;html=1;container=0;fillColor=#f5f5f5;fontColor=#333333;strokeColor=#666666;" parent="yuexsXdvfjhhzSVvDChW-48" vertex="1">
          <mxGeometry x="50.940000000000055" y="6.94515306122449" width="42.5" height="23.15051020408163" as="geometry" />
        </mxCell>
        <mxCell id="yuexsXdvfjhhzSVvDChW-52" value="&lt;font style=&quot;font-size: 8px;&quot;&gt;Dash2&lt;/font&gt;" style="rounded=1;whiteSpace=wrap;html=1;container=0;fillColor=#f5f5f5;fontColor=#333333;strokeColor=#666666;" parent="yuexsXdvfjhhzSVvDChW-48" vertex="1">
          <mxGeometry x="178.44000000000005" y="6.94515306122449" width="42.5" height="23.15051020408163" as="geometry" />
        </mxCell>
        <mxCell id="yuexsXdvfjhhzSVvDChW-53" value="&lt;font style=&quot;font-size: 8px;&quot;&gt;Work2&lt;/font&gt;" style="rounded=1;whiteSpace=wrap;html=1;container=0;fillColor=#f5f5f5;fontColor=#333333;strokeColor=#666666;" parent="yuexsXdvfjhhzSVvDChW-48" vertex="1">
          <mxGeometry x="225.19000000000005" y="6.94515306122449" width="42.5" height="23.15051020408163" as="geometry" />
        </mxCell>
        <mxCell id="yuexsXdvfjhhzSVvDChW-54" value="" style="group;fillColor=#dae8fc;strokeColor=#6c8ebf;" parent="yuexsXdvfjhhzSVvDChW-61" vertex="1" connectable="0">
          <mxGeometry x="25" y="57.41326530612255" width="272" height="37.04081632653061" as="geometry" />
        </mxCell>
        <mxCell id="yuexsXdvfjhhzSVvDChW-55" value="Data Sources" style="rounded=1;whiteSpace=wrap;html=1;fillColor=#dae8fc;strokeColor=#6c8ebf;verticalAlign=top;" parent="yuexsXdvfjhhzSVvDChW-54" vertex="1">
          <mxGeometry width="272" height="37.04081632653061" as="geometry" />
        </mxCell>
        <mxCell id="yuexsXdvfjhhzSVvDChW-56" value="&lt;font style=&quot;font-size: 8px;&quot;&gt;ds1&lt;/font&gt;" style="rounded=1;whiteSpace=wrap;html=1;container=0;fillColor=#f5f5f5;fontColor=#333333;strokeColor=#666666;" parent="yuexsXdvfjhhzSVvDChW-54" vertex="1">
          <mxGeometry x="4.190000000000055" y="6.94515306122449" width="42.5" height="23.15051020408163" as="geometry" />
        </mxCell>
        <mxCell id="yuexsXdvfjhhzSVvDChW-57" value="&lt;font style=&quot;font-size: 8px;&quot;&gt;ds2&lt;/font&gt;" style="rounded=1;whiteSpace=wrap;html=1;container=0;fillColor=#f5f5f5;fontColor=#333333;strokeColor=#666666;" parent="yuexsXdvfjhhzSVvDChW-54" vertex="1">
          <mxGeometry x="50.940000000000055" y="6.94515306122449" width="42.5" height="23.15051020408163" as="geometry" />
        </mxCell>
        <mxCell id="yuexsXdvfjhhzSVvDChW-58" value="&lt;font style=&quot;font-size: 8px;&quot;&gt;ds3&lt;/font&gt;" style="rounded=1;whiteSpace=wrap;html=1;container=0;fillColor=#f5f5f5;fontColor=#333333;strokeColor=#666666;" parent="yuexsXdvfjhhzSVvDChW-54" vertex="1">
          <mxGeometry x="178.44000000000005" y="6.94515306122449" width="42.5" height="23.15051020408163" as="geometry" />
        </mxCell>
        <mxCell id="yuexsXdvfjhhzSVvDChW-59" value="&lt;font style=&quot;font-size: 8px;&quot;&gt;ds4&lt;/font&gt;" style="rounded=1;whiteSpace=wrap;html=1;container=0;fillColor=#f5f5f5;fontColor=#333333;strokeColor=#666666;" parent="yuexsXdvfjhhzSVvDChW-54" vertex="1">
          <mxGeometry x="225.19000000000005" y="6.94515306122449" width="42.5" height="23.15051020408163" as="geometry" />
        </mxCell>
        <mxCell id="yuexsXdvfjhhzSVvDChW-60" value="&lt;b&gt;GIT Dev1 Branch&lt;/b&gt;" style="text;html=1;strokeColor=none;fillColor=none;align=center;verticalAlign=middle;whiteSpace=wrap;rounded=0;rotation=0;" parent="yuexsXdvfjhhzSVvDChW-61" vertex="1">
          <mxGeometry x="97" width="130" height="33.6734693877551" as="geometry" />
        </mxCell>
        <mxCell id="yuexsXdvfjhhzSVvDChW-87" value="" style="group;fillColor=#d5e8d4;strokeColor=#82b366;" parent="1" vertex="1" connectable="0">
          <mxGeometry x="680" y="189.99857142857144" width="520" height="190.82" as="geometry" />
        </mxCell>
        <mxCell id="yuexsXdvfjhhzSVvDChW-88" value="GIT Folder for Tableau_Objects Repository" style="shape=cylinder3;whiteSpace=wrap;html=1;boundedLbl=1;backgroundOutline=1;size=15;fillColor=#d5e8d4;strokeColor=#82b366;verticalAlign=top;" parent="yuexsXdvfjhhzSVvDChW-87" vertex="1">
          <mxGeometry x="-158" width="670" height="190.82" as="geometry" />
        </mxCell>
        <mxCell id="yuexsXdvfjhhzSVvDChW-89" value="" style="group;fillColor=#dae8fc;strokeColor=#6c8ebf;" parent="yuexsXdvfjhhzSVvDChW-87" vertex="1" connectable="0">
          <mxGeometry x="25" y="94.45408163265317" width="272" height="37.04081632653061" as="geometry" />
        </mxCell>
        <mxCell id="yuexsXdvfjhhzSVvDChW-90" value="Data Projects" style="rounded=1;whiteSpace=wrap;html=1;fillColor=#d5e8d4;strokeColor=#82b366;verticalAlign=top;" parent="yuexsXdvfjhhzSVvDChW-89" vertex="1">
          <mxGeometry width="272" height="37.04081632653061" as="geometry" />
        </mxCell>
        <mxCell id="yuexsXdvfjhhzSVvDChW-91" value="&lt;font style=&quot;font-size: 8px;&quot;&gt;Dash1&lt;/font&gt;" style="rounded=1;whiteSpace=wrap;html=1;container=0;fillColor=#f5f5f5;fontColor=#333333;strokeColor=#666666;" parent="yuexsXdvfjhhzSVvDChW-89" vertex="1">
          <mxGeometry x="3.8500000000000227" y="6.94515306122449" width="42.5" height="23.15051020408163" as="geometry" />
        </mxCell>
        <mxCell id="yuexsXdvfjhhzSVvDChW-92" value="&lt;font style=&quot;font-size: 8px;&quot;&gt;Workbook1&lt;/font&gt;" style="rounded=1;whiteSpace=wrap;html=1;container=0;fillColor=#f5f5f5;fontColor=#333333;strokeColor=#666666;" parent="yuexsXdvfjhhzSVvDChW-89" vertex="1">
          <mxGeometry x="50.60000000000002" y="6.94515306122449" width="42.5" height="23.15051020408163" as="geometry" />
        </mxCell>
        <mxCell id="yuexsXdvfjhhzSVvDChW-93" value="&lt;font style=&quot;font-size: 8px;&quot;&gt;Dash2&lt;/font&gt;" style="rounded=1;whiteSpace=wrap;html=1;container=0;fillColor=#f5f5f5;fontColor=#333333;strokeColor=#666666;" parent="yuexsXdvfjhhzSVvDChW-89" vertex="1">
          <mxGeometry x="178.0999999999999" y="6.94515306122449" width="42.5" height="23.15051020408163" as="geometry" />
        </mxCell>
        <mxCell id="yuexsXdvfjhhzSVvDChW-94" value="&lt;font style=&quot;font-size: 8px;&quot;&gt;Work2&lt;/font&gt;" style="rounded=1;whiteSpace=wrap;html=1;container=0;fillColor=#f5f5f5;fontColor=#333333;strokeColor=#666666;" parent="yuexsXdvfjhhzSVvDChW-89" vertex="1">
          <mxGeometry x="224.8499999999999" y="6.94515306122449" width="42.5" height="23.15051020408163" as="geometry" />
        </mxCell>
        <mxCell id="yuexsXdvfjhhzSVvDChW-95" value="" style="group;fillColor=#dae8fc;strokeColor=#6c8ebf;" parent="yuexsXdvfjhhzSVvDChW-87" vertex="1" connectable="0">
          <mxGeometry x="25" y="131.49489795918376" width="272" height="37.04081632653061" as="geometry" />
        </mxCell>
        <mxCell id="yuexsXdvfjhhzSVvDChW-96" value="External" style="rounded=1;whiteSpace=wrap;html=1;fillColor=#d5e8d4;strokeColor=#82b366;verticalAlign=top;" parent="yuexsXdvfjhhzSVvDChW-95" vertex="1">
          <mxGeometry width="272" height="37.04081632653061" as="geometry" />
        </mxCell>
        <mxCell id="yuexsXdvfjhhzSVvDChW-97" value="&lt;font style=&quot;font-size: 8px;&quot;&gt;Dash1&lt;/font&gt;" style="rounded=1;whiteSpace=wrap;html=1;container=0;fillColor=#f5f5f5;fontColor=#333333;strokeColor=#666666;" parent="yuexsXdvfjhhzSVvDChW-95" vertex="1">
          <mxGeometry x="4.190000000000055" y="6.94515306122449" width="42.5" height="23.15051020408163" as="geometry" />
        </mxCell>
        <mxCell id="yuexsXdvfjhhzSVvDChW-98" value="&lt;font style=&quot;font-size: 8px;&quot;&gt;Workbook1&lt;/font&gt;" style="rounded=1;whiteSpace=wrap;html=1;container=0;fillColor=#f5f5f5;fontColor=#333333;strokeColor=#666666;" parent="yuexsXdvfjhhzSVvDChW-95" vertex="1">
          <mxGeometry x="50.940000000000055" y="6.94515306122449" width="42.5" height="23.15051020408163" as="geometry" />
        </mxCell>
        <mxCell id="yuexsXdvfjhhzSVvDChW-99" value="&lt;font style=&quot;font-size: 8px;&quot;&gt;Dash2&lt;/font&gt;" style="rounded=1;whiteSpace=wrap;html=1;container=0;fillColor=#f5f5f5;fontColor=#333333;strokeColor=#666666;" parent="yuexsXdvfjhhzSVvDChW-95" vertex="1">
          <mxGeometry x="178.44000000000005" y="6.94515306122449" width="42.5" height="23.15051020408163" as="geometry" />
        </mxCell>
        <mxCell id="yuexsXdvfjhhzSVvDChW-100" value="&lt;font style=&quot;font-size: 8px;&quot;&gt;Work2&lt;/font&gt;" style="rounded=1;whiteSpace=wrap;html=1;container=0;fillColor=#f5f5f5;fontColor=#333333;strokeColor=#666666;" parent="yuexsXdvfjhhzSVvDChW-95" vertex="1">
          <mxGeometry x="225.19000000000005" y="6.94515306122449" width="42.5" height="23.15051020408163" as="geometry" />
        </mxCell>
        <mxCell id="yuexsXdvfjhhzSVvDChW-101" value="" style="group;fillColor=#d5e8d4;strokeColor=#82b366;" parent="yuexsXdvfjhhzSVvDChW-87" vertex="1" connectable="0">
          <mxGeometry x="25" y="57.41326530612255" width="272" height="37.04081632653061" as="geometry" />
        </mxCell>
        <mxCell id="yuexsXdvfjhhzSVvDChW-102" value="Data Sources" style="rounded=1;whiteSpace=wrap;html=1;fillColor=#d5e8d4;strokeColor=#82b366;verticalAlign=top;" parent="yuexsXdvfjhhzSVvDChW-101" vertex="1">
          <mxGeometry width="272" height="37.04081632653061" as="geometry" />
        </mxCell>
        <mxCell id="yuexsXdvfjhhzSVvDChW-103" value="&lt;font style=&quot;font-size: 8px;&quot;&gt;ds1&lt;/font&gt;" style="rounded=1;whiteSpace=wrap;html=1;container=0;fillColor=#f5f5f5;fontColor=#333333;strokeColor=#666666;" parent="yuexsXdvfjhhzSVvDChW-101" vertex="1">
          <mxGeometry x="4.190000000000055" y="6.94515306122449" width="42.5" height="23.15051020408163" as="geometry" />
        </mxCell>
        <mxCell id="yuexsXdvfjhhzSVvDChW-104" value="&lt;font style=&quot;font-size: 8px;&quot;&gt;ds2&lt;/font&gt;" style="rounded=1;whiteSpace=wrap;html=1;container=0;fillColor=#f5f5f5;fontColor=#333333;strokeColor=#666666;" parent="yuexsXdvfjhhzSVvDChW-101" vertex="1">
          <mxGeometry x="50.940000000000055" y="6.94515306122449" width="42.5" height="23.15051020408163" as="geometry" />
        </mxCell>
        <mxCell id="yuexsXdvfjhhzSVvDChW-105" value="&lt;font style=&quot;font-size: 8px;&quot;&gt;ds3&lt;/font&gt;" style="rounded=1;whiteSpace=wrap;html=1;container=0;fillColor=#f5f5f5;fontColor=#333333;strokeColor=#666666;" parent="yuexsXdvfjhhzSVvDChW-101" vertex="1">
          <mxGeometry x="178.44000000000005" y="6.94515306122449" width="42.5" height="23.15051020408163" as="geometry" />
        </mxCell>
        <mxCell id="yuexsXdvfjhhzSVvDChW-106" value="&lt;font style=&quot;font-size: 8px;&quot;&gt;ds4&lt;/font&gt;" style="rounded=1;whiteSpace=wrap;html=1;container=0;fillColor=#f5f5f5;fontColor=#333333;strokeColor=#666666;" parent="yuexsXdvfjhhzSVvDChW-101" vertex="1">
          <mxGeometry x="225.19000000000005" y="6.94515306122449" width="42.5" height="23.15051020408163" as="geometry" />
        </mxCell>
        <mxCell id="yuexsXdvfjhhzSVvDChW-107" value="&lt;b&gt;GIT Dev Branch&lt;/b&gt;" style="text;html=1;strokeColor=none;fillColor=none;align=center;verticalAlign=middle;whiteSpace=wrap;rounded=0;rotation=0;" parent="yuexsXdvfjhhzSVvDChW-87" vertex="1">
          <mxGeometry x="97" width="130" height="33.6734693877551" as="geometry" />
        </mxCell>
        <mxCell id="d246zdA38Hne-XJqFqv3-299" value="Git Pull Request" style="text;html=1;strokeColor=none;fillColor=none;align=center;verticalAlign=middle;whiteSpace=wrap;rounded=0;rotation=90;" parent="yuexsXdvfjhhzSVvDChW-87" vertex="1">
          <mxGeometry x="323" y="136.00142857142856" width="80" height="30" as="geometry" />
        </mxCell>
        <mxCell id="d246zdA38Hne-XJqFqv3-301" value="2" style="ellipse;whiteSpace=wrap;html=1;aspect=fixed;fillColor=#fff2cc;strokeColor=#d6b656;" parent="yuexsXdvfjhhzSVvDChW-87" vertex="1">
          <mxGeometry x="350" y="85.41142857142856" width="20" height="20" as="geometry" />
        </mxCell>
        <mxCell id="d246zdA38Hne-XJqFqv3-285" value="2" style="ellipse;whiteSpace=wrap;html=1;aspect=fixed;fillColor=#dae8fc;strokeColor=#6c8ebf;" parent="yuexsXdvfjhhzSVvDChW-87" vertex="1">
          <mxGeometry x="-30" y="85.41142857142859" width="16.5" height="16.5" as="geometry" />
        </mxCell>
        <mxCell id="yuexsXdvfjhhzSVvDChW-216" value="Git Pull Request" style="text;html=1;strokeColor=none;fillColor=none;align=center;verticalAlign=middle;whiteSpace=wrap;rounded=0;rotation=90;" parent="yuexsXdvfjhhzSVvDChW-87" vertex="1">
          <mxGeometry x="-70" y="138.53142857142853" width="80" height="30" as="geometry" />
        </mxCell>
        <mxCell id="yuexsXdvfjhhzSVvDChW-108" value="" style="endArrow=none;dashed=1;html=1;rounded=0;exitX=0.5;exitY=1;exitDx=0;exitDy=0;entryX=0.5;entryY=0;entryDx=0;entryDy=0;" parent="1" edge="1">
          <mxGeometry width="50" height="50" relative="1" as="geometry">
            <mxPoint x="491" y="174" as="sourcePoint" />
            <mxPoint x="1211" y="174" as="targetPoint" />
          </mxGeometry>
        </mxCell>
        <mxCell id="yuexsXdvfjhhzSVvDChW-109" value="" style="group;fillColor=#d5e8d4;strokeColor=#82b366;" parent="1" vertex="1" connectable="0">
          <mxGeometry x="679" y="-34.00142857142856" width="520" height="190.82" as="geometry" />
        </mxCell>
        <mxCell id="yuexsXdvfjhhzSVvDChW-110" value="GIT Folder for Tableau_Objects Repository" style="shape=cylinder3;whiteSpace=wrap;html=1;boundedLbl=1;backgroundOutline=1;size=15;fillColor=#d5e8d4;strokeColor=#82b366;verticalAlign=top;" parent="yuexsXdvfjhhzSVvDChW-109" vertex="1">
          <mxGeometry x="-158" width="670" height="190.82" as="geometry" />
        </mxCell>
        <mxCell id="yuexsXdvfjhhzSVvDChW-111" value="" style="group;fillColor=#dae8fc;strokeColor=#6c8ebf;" parent="yuexsXdvfjhhzSVvDChW-109" vertex="1" connectable="0">
          <mxGeometry x="25" y="94.45408163265317" width="272" height="37.04081632653061" as="geometry" />
        </mxCell>
        <mxCell id="yuexsXdvfjhhzSVvDChW-112" value="Data Projects" style="rounded=1;whiteSpace=wrap;html=1;fillColor=#d5e8d4;strokeColor=#82b366;verticalAlign=top;" parent="yuexsXdvfjhhzSVvDChW-111" vertex="1">
          <mxGeometry width="272" height="37.04081632653061" as="geometry" />
        </mxCell>
        <mxCell id="yuexsXdvfjhhzSVvDChW-113" value="&lt;font style=&quot;font-size: 8px;&quot;&gt;Dash1&lt;/font&gt;" style="rounded=1;whiteSpace=wrap;html=1;container=0;fillColor=#f5f5f5;fontColor=#333333;strokeColor=#666666;" parent="yuexsXdvfjhhzSVvDChW-111" vertex="1">
          <mxGeometry x="3.8500000000000227" y="6.94515306122449" width="42.5" height="23.15051020408163" as="geometry" />
        </mxCell>
        <mxCell id="yuexsXdvfjhhzSVvDChW-114" value="&lt;font style=&quot;font-size: 8px;&quot;&gt;Workbook1&lt;/font&gt;" style="rounded=1;whiteSpace=wrap;html=1;container=0;fillColor=#f5f5f5;fontColor=#333333;strokeColor=#666666;" parent="yuexsXdvfjhhzSVvDChW-111" vertex="1">
          <mxGeometry x="50.60000000000002" y="6.94515306122449" width="42.5" height="23.15051020408163" as="geometry" />
        </mxCell>
        <mxCell id="yuexsXdvfjhhzSVvDChW-115" value="&lt;font style=&quot;font-size: 8px;&quot;&gt;Dash2&lt;/font&gt;" style="rounded=1;whiteSpace=wrap;html=1;container=0;fillColor=#f5f5f5;fontColor=#333333;strokeColor=#666666;" parent="yuexsXdvfjhhzSVvDChW-111" vertex="1">
          <mxGeometry x="178.0999999999999" y="6.94515306122449" width="42.5" height="23.15051020408163" as="geometry" />
        </mxCell>
        <mxCell id="yuexsXdvfjhhzSVvDChW-116" value="&lt;font style=&quot;font-size: 8px;&quot;&gt;Work2&lt;/font&gt;" style="rounded=1;whiteSpace=wrap;html=1;container=0;fillColor=#f5f5f5;fontColor=#333333;strokeColor=#666666;" parent="yuexsXdvfjhhzSVvDChW-111" vertex="1">
          <mxGeometry x="224.8499999999999" y="6.94515306122449" width="42.5" height="23.15051020408163" as="geometry" />
        </mxCell>
        <mxCell id="yuexsXdvfjhhzSVvDChW-117" value="" style="group;fillColor=#dae8fc;strokeColor=#6c8ebf;" parent="yuexsXdvfjhhzSVvDChW-109" vertex="1" connectable="0">
          <mxGeometry x="25" y="131.49489795918376" width="272" height="37.04081632653061" as="geometry" />
        </mxCell>
        <mxCell id="yuexsXdvfjhhzSVvDChW-118" value="External" style="rounded=1;whiteSpace=wrap;html=1;fillColor=#d5e8d4;strokeColor=#82b366;verticalAlign=top;" parent="yuexsXdvfjhhzSVvDChW-117" vertex="1">
          <mxGeometry width="272" height="37.04081632653061" as="geometry" />
        </mxCell>
        <mxCell id="yuexsXdvfjhhzSVvDChW-119" value="&lt;font style=&quot;font-size: 8px;&quot;&gt;Dash1&lt;/font&gt;" style="rounded=1;whiteSpace=wrap;html=1;container=0;fillColor=#f5f5f5;fontColor=#333333;strokeColor=#666666;" parent="yuexsXdvfjhhzSVvDChW-117" vertex="1">
          <mxGeometry x="4.190000000000055" y="6.94515306122449" width="42.5" height="23.15051020408163" as="geometry" />
        </mxCell>
        <mxCell id="yuexsXdvfjhhzSVvDChW-120" value="&lt;font style=&quot;font-size: 8px;&quot;&gt;Workbook1&lt;/font&gt;" style="rounded=1;whiteSpace=wrap;html=1;container=0;fillColor=#f5f5f5;fontColor=#333333;strokeColor=#666666;" parent="yuexsXdvfjhhzSVvDChW-117" vertex="1">
          <mxGeometry x="50.940000000000055" y="6.94515306122449" width="42.5" height="23.15051020408163" as="geometry" />
        </mxCell>
        <mxCell id="yuexsXdvfjhhzSVvDChW-121" value="&lt;font style=&quot;font-size: 8px;&quot;&gt;Dash2&lt;/font&gt;" style="rounded=1;whiteSpace=wrap;html=1;container=0;fillColor=#f5f5f5;fontColor=#333333;strokeColor=#666666;" parent="yuexsXdvfjhhzSVvDChW-117" vertex="1">
          <mxGeometry x="178.44000000000005" y="6.94515306122449" width="42.5" height="23.15051020408163" as="geometry" />
        </mxCell>
        <mxCell id="yuexsXdvfjhhzSVvDChW-122" value="&lt;font style=&quot;font-size: 8px;&quot;&gt;Work2&lt;/font&gt;" style="rounded=1;whiteSpace=wrap;html=1;container=0;fillColor=#f5f5f5;fontColor=#333333;strokeColor=#666666;" parent="yuexsXdvfjhhzSVvDChW-117" vertex="1">
          <mxGeometry x="225.19000000000005" y="6.94515306122449" width="42.5" height="23.15051020408163" as="geometry" />
        </mxCell>
        <mxCell id="yuexsXdvfjhhzSVvDChW-123" value="" style="group;fillColor=#d5e8d4;strokeColor=#82b366;" parent="yuexsXdvfjhhzSVvDChW-109" vertex="1" connectable="0">
          <mxGeometry x="25" y="57.41326530612255" width="272" height="37.04081632653061" as="geometry" />
        </mxCell>
        <mxCell id="yuexsXdvfjhhzSVvDChW-124" value="Data Sources" style="rounded=1;whiteSpace=wrap;html=1;fillColor=#d5e8d4;strokeColor=#82b366;verticalAlign=top;" parent="yuexsXdvfjhhzSVvDChW-123" vertex="1">
          <mxGeometry width="272" height="37.04081632653061" as="geometry" />
        </mxCell>
        <mxCell id="yuexsXdvfjhhzSVvDChW-125" value="&lt;font style=&quot;font-size: 8px;&quot;&gt;ds1&lt;/font&gt;" style="rounded=1;whiteSpace=wrap;html=1;container=0;fillColor=#f5f5f5;fontColor=#333333;strokeColor=#666666;" parent="yuexsXdvfjhhzSVvDChW-123" vertex="1">
          <mxGeometry x="4.190000000000055" y="6.94515306122449" width="42.5" height="23.15051020408163" as="geometry" />
        </mxCell>
        <mxCell id="yuexsXdvfjhhzSVvDChW-126" value="&lt;font style=&quot;font-size: 8px;&quot;&gt;ds2&lt;/font&gt;" style="rounded=1;whiteSpace=wrap;html=1;container=0;fillColor=#f5f5f5;fontColor=#333333;strokeColor=#666666;" parent="yuexsXdvfjhhzSVvDChW-123" vertex="1">
          <mxGeometry x="50.940000000000055" y="6.94515306122449" width="42.5" height="23.15051020408163" as="geometry" />
        </mxCell>
        <mxCell id="yuexsXdvfjhhzSVvDChW-127" value="&lt;font style=&quot;font-size: 8px;&quot;&gt;ds3&lt;/font&gt;" style="rounded=1;whiteSpace=wrap;html=1;container=0;fillColor=#f5f5f5;fontColor=#333333;strokeColor=#666666;" parent="yuexsXdvfjhhzSVvDChW-123" vertex="1">
          <mxGeometry x="178.44000000000005" y="6.94515306122449" width="42.5" height="23.15051020408163" as="geometry" />
        </mxCell>
        <mxCell id="yuexsXdvfjhhzSVvDChW-128" value="&lt;font style=&quot;font-size: 8px;&quot;&gt;ds4&lt;/font&gt;" style="rounded=1;whiteSpace=wrap;html=1;container=0;fillColor=#f5f5f5;fontColor=#333333;strokeColor=#666666;" parent="yuexsXdvfjhhzSVvDChW-123" vertex="1">
          <mxGeometry x="225.19000000000005" y="6.94515306122449" width="42.5" height="23.15051020408163" as="geometry" />
        </mxCell>
        <mxCell id="yuexsXdvfjhhzSVvDChW-129" value="&lt;b&gt;GIT Test Branch&lt;/b&gt;" style="text;html=1;strokeColor=none;fillColor=none;align=center;verticalAlign=middle;whiteSpace=wrap;rounded=0;rotation=0;" parent="yuexsXdvfjhhzSVvDChW-109" vertex="1">
          <mxGeometry x="97" width="130" height="33.6734693877551" as="geometry" />
        </mxCell>
        <mxCell id="yuexsXdvfjhhzSVvDChW-219" value="3" style="ellipse;whiteSpace=wrap;html=1;aspect=fixed;fillColor=#d5e8d4;strokeColor=#82b366;" parent="yuexsXdvfjhhzSVvDChW-109" vertex="1">
          <mxGeometry x="-39" y="85.41142857142859" width="20" height="20" as="geometry" />
        </mxCell>
        <mxCell id="lU6CdYUgjC_pBxSl2gmc-2" value="3" style="ellipse;whiteSpace=wrap;html=1;aspect=fixed;fillColor=#d5e8d4;strokeColor=#82b366;" parent="yuexsXdvfjhhzSVvDChW-109" vertex="1">
          <mxGeometry x="334" y="92.41142857142859" width="20" height="20" as="geometry" />
        </mxCell>
        <mxCell id="yuexsXdvfjhhzSVvDChW-220" value="Git Pull Request" style="text;html=1;strokeColor=none;fillColor=none;align=center;verticalAlign=middle;whiteSpace=wrap;rounded=0;rotation=90;" parent="yuexsXdvfjhhzSVvDChW-109" vertex="1">
          <mxGeometry x="-79" y="154.00142857142853" width="80" height="30" as="geometry" />
        </mxCell>
        <mxCell id="yuexsXdvfjhhzSVvDChW-221" value="Git Pull Request" style="text;html=1;strokeColor=none;fillColor=none;align=center;verticalAlign=middle;whiteSpace=wrap;rounded=0;rotation=90;" parent="yuexsXdvfjhhzSVvDChW-109" vertex="1">
          <mxGeometry x="311" y="154.00142857142853" width="80" height="30" as="geometry" />
        </mxCell>
        <mxCell id="yuexsXdvfjhhzSVvDChW-130" value="" style="endArrow=none;dashed=1;html=1;rounded=0;exitX=0.5;exitY=1;exitDx=0;exitDy=0;entryX=0.5;entryY=0;entryDx=0;entryDy=0;" parent="1" edge="1">
          <mxGeometry width="50" height="50" relative="1" as="geometry">
            <mxPoint x="490" y="-50" as="sourcePoint" />
            <mxPoint x="1210" y="-50" as="targetPoint" />
          </mxGeometry>
        </mxCell>
        <mxCell id="yuexsXdvfjhhzSVvDChW-131" value="" style="group;fillColor=#d5e8d4;strokeColor=#82b366;" parent="1" vertex="1" connectable="0">
          <mxGeometry x="669" y="-254.00142857142856" width="520" height="190.82" as="geometry" />
        </mxCell>
        <mxCell id="yuexsXdvfjhhzSVvDChW-132" value="GIT Folder for Tableau_Objects Repository" style="shape=cylinder3;whiteSpace=wrap;html=1;boundedLbl=1;backgroundOutline=1;size=15;fillColor=#d5e8d4;strokeColor=#82b366;verticalAlign=top;" parent="yuexsXdvfjhhzSVvDChW-131" vertex="1">
          <mxGeometry x="-150" width="670" height="190.82" as="geometry" />
        </mxCell>
        <mxCell id="yuexsXdvfjhhzSVvDChW-133" value="" style="group;fillColor=#dae8fc;strokeColor=#6c8ebf;" parent="yuexsXdvfjhhzSVvDChW-131" vertex="1" connectable="0">
          <mxGeometry x="25" y="94.45408163265317" width="272" height="37.04081632653061" as="geometry" />
        </mxCell>
        <mxCell id="yuexsXdvfjhhzSVvDChW-134" value="Data Projects" style="rounded=1;whiteSpace=wrap;html=1;fillColor=#d5e8d4;strokeColor=#82b366;verticalAlign=top;" parent="yuexsXdvfjhhzSVvDChW-133" vertex="1">
          <mxGeometry width="272" height="37.04081632653061" as="geometry" />
        </mxCell>
        <mxCell id="yuexsXdvfjhhzSVvDChW-135" value="&lt;font style=&quot;font-size: 8px;&quot;&gt;Dash1&lt;/font&gt;" style="rounded=1;whiteSpace=wrap;html=1;container=0;fillColor=#f5f5f5;fontColor=#333333;strokeColor=#666666;" parent="yuexsXdvfjhhzSVvDChW-133" vertex="1">
          <mxGeometry x="3.8500000000000227" y="6.94515306122449" width="42.5" height="23.15051020408163" as="geometry" />
        </mxCell>
        <mxCell id="yuexsXdvfjhhzSVvDChW-136" value="&lt;font style=&quot;font-size: 8px;&quot;&gt;Workbook1&lt;/font&gt;" style="rounded=1;whiteSpace=wrap;html=1;container=0;fillColor=#f5f5f5;fontColor=#333333;strokeColor=#666666;" parent="yuexsXdvfjhhzSVvDChW-133" vertex="1">
          <mxGeometry x="50.60000000000002" y="6.94515306122449" width="42.5" height="23.15051020408163" as="geometry" />
        </mxCell>
        <mxCell id="yuexsXdvfjhhzSVvDChW-137" value="&lt;font style=&quot;font-size: 8px;&quot;&gt;Dash2&lt;/font&gt;" style="rounded=1;whiteSpace=wrap;html=1;container=0;fillColor=#f5f5f5;fontColor=#333333;strokeColor=#666666;" parent="yuexsXdvfjhhzSVvDChW-133" vertex="1">
          <mxGeometry x="178.0999999999999" y="6.94515306122449" width="42.5" height="23.15051020408163" as="geometry" />
        </mxCell>
        <mxCell id="yuexsXdvfjhhzSVvDChW-138" value="&lt;font style=&quot;font-size: 8px;&quot;&gt;Work2&lt;/font&gt;" style="rounded=1;whiteSpace=wrap;html=1;container=0;fillColor=#f5f5f5;fontColor=#333333;strokeColor=#666666;" parent="yuexsXdvfjhhzSVvDChW-133" vertex="1">
          <mxGeometry x="224.8499999999999" y="6.94515306122449" width="42.5" height="23.15051020408163" as="geometry" />
        </mxCell>
        <mxCell id="yuexsXdvfjhhzSVvDChW-139" value="" style="group;fillColor=#dae8fc;strokeColor=#6c8ebf;" parent="yuexsXdvfjhhzSVvDChW-131" vertex="1" connectable="0">
          <mxGeometry x="25" y="131.49489795918376" width="272" height="37.04081632653061" as="geometry" />
        </mxCell>
        <mxCell id="yuexsXdvfjhhzSVvDChW-140" value="External" style="rounded=1;whiteSpace=wrap;html=1;fillColor=#d5e8d4;strokeColor=#82b366;verticalAlign=top;" parent="yuexsXdvfjhhzSVvDChW-139" vertex="1">
          <mxGeometry width="272" height="37.04081632653061" as="geometry" />
        </mxCell>
        <mxCell id="yuexsXdvfjhhzSVvDChW-141" value="&lt;font style=&quot;font-size: 8px;&quot;&gt;Dash1&lt;/font&gt;" style="rounded=1;whiteSpace=wrap;html=1;container=0;fillColor=#f5f5f5;fontColor=#333333;strokeColor=#666666;" parent="yuexsXdvfjhhzSVvDChW-139" vertex="1">
          <mxGeometry x="4.190000000000055" y="6.94515306122449" width="42.5" height="23.15051020408163" as="geometry" />
        </mxCell>
        <mxCell id="yuexsXdvfjhhzSVvDChW-142" value="&lt;font style=&quot;font-size: 8px;&quot;&gt;Workbook1&lt;/font&gt;" style="rounded=1;whiteSpace=wrap;html=1;container=0;fillColor=#f5f5f5;fontColor=#333333;strokeColor=#666666;" parent="yuexsXdvfjhhzSVvDChW-139" vertex="1">
          <mxGeometry x="50.940000000000055" y="6.94515306122449" width="42.5" height="23.15051020408163" as="geometry" />
        </mxCell>
        <mxCell id="yuexsXdvfjhhzSVvDChW-143" value="&lt;font style=&quot;font-size: 8px;&quot;&gt;Dash2&lt;/font&gt;" style="rounded=1;whiteSpace=wrap;html=1;container=0;fillColor=#f5f5f5;fontColor=#333333;strokeColor=#666666;" parent="yuexsXdvfjhhzSVvDChW-139" vertex="1">
          <mxGeometry x="178.44000000000005" y="6.94515306122449" width="42.5" height="23.15051020408163" as="geometry" />
        </mxCell>
        <mxCell id="yuexsXdvfjhhzSVvDChW-144" value="&lt;font style=&quot;font-size: 8px;&quot;&gt;Work2&lt;/font&gt;" style="rounded=1;whiteSpace=wrap;html=1;container=0;fillColor=#f5f5f5;fontColor=#333333;strokeColor=#666666;" parent="yuexsXdvfjhhzSVvDChW-139" vertex="1">
          <mxGeometry x="225.19000000000005" y="6.94515306122449" width="42.5" height="23.15051020408163" as="geometry" />
        </mxCell>
        <mxCell id="yuexsXdvfjhhzSVvDChW-145" value="" style="group;fillColor=#d5e8d4;strokeColor=#82b366;" parent="yuexsXdvfjhhzSVvDChW-131" vertex="1" connectable="0">
          <mxGeometry x="25" y="57.41326530612255" width="272" height="37.04081632653061" as="geometry" />
        </mxCell>
        <mxCell id="yuexsXdvfjhhzSVvDChW-146" value="Data Sources" style="rounded=1;whiteSpace=wrap;html=1;fillColor=#d5e8d4;strokeColor=#82b366;verticalAlign=top;" parent="yuexsXdvfjhhzSVvDChW-145" vertex="1">
          <mxGeometry width="272" height="37.04081632653061" as="geometry" />
        </mxCell>
        <mxCell id="yuexsXdvfjhhzSVvDChW-147" value="&lt;font style=&quot;font-size: 8px;&quot;&gt;ds1&lt;/font&gt;" style="rounded=1;whiteSpace=wrap;html=1;container=0;fillColor=#f5f5f5;fontColor=#333333;strokeColor=#666666;" parent="yuexsXdvfjhhzSVvDChW-145" vertex="1">
          <mxGeometry x="4.190000000000055" y="6.94515306122449" width="42.5" height="23.15051020408163" as="geometry" />
        </mxCell>
        <mxCell id="yuexsXdvfjhhzSVvDChW-148" value="&lt;font style=&quot;font-size: 8px;&quot;&gt;ds2&lt;/font&gt;" style="rounded=1;whiteSpace=wrap;html=1;container=0;fillColor=#f5f5f5;fontColor=#333333;strokeColor=#666666;" parent="yuexsXdvfjhhzSVvDChW-145" vertex="1">
          <mxGeometry x="50.940000000000055" y="6.94515306122449" width="42.5" height="23.15051020408163" as="geometry" />
        </mxCell>
        <mxCell id="yuexsXdvfjhhzSVvDChW-149" value="&lt;font style=&quot;font-size: 8px;&quot;&gt;ds3&lt;/font&gt;" style="rounded=1;whiteSpace=wrap;html=1;container=0;fillColor=#f5f5f5;fontColor=#333333;strokeColor=#666666;" parent="yuexsXdvfjhhzSVvDChW-145" vertex="1">
          <mxGeometry x="178.44000000000005" y="6.94515306122449" width="42.5" height="23.15051020408163" as="geometry" />
        </mxCell>
        <mxCell id="yuexsXdvfjhhzSVvDChW-150" value="&lt;font style=&quot;font-size: 8px;&quot;&gt;ds4&lt;/font&gt;" style="rounded=1;whiteSpace=wrap;html=1;container=0;fillColor=#f5f5f5;fontColor=#333333;strokeColor=#666666;" parent="yuexsXdvfjhhzSVvDChW-145" vertex="1">
          <mxGeometry x="225.19000000000005" y="6.94515306122449" width="42.5" height="23.15051020408163" as="geometry" />
        </mxCell>
        <mxCell id="yuexsXdvfjhhzSVvDChW-151" value="&lt;b&gt;GIT Main Branch&lt;/b&gt;" style="text;html=1;strokeColor=none;fillColor=none;align=center;verticalAlign=middle;whiteSpace=wrap;rounded=0;rotation=0;" parent="yuexsXdvfjhhzSVvDChW-131" vertex="1">
          <mxGeometry x="97" width="130" height="33.6734693877551" as="geometry" />
        </mxCell>
        <mxCell id="yuexsXdvfjhhzSVvDChW-224" value="4" style="ellipse;whiteSpace=wrap;html=1;aspect=fixed;fillColor=#d5e8d4;strokeColor=#82b366;" parent="yuexsXdvfjhhzSVvDChW-131" vertex="1">
          <mxGeometry x="-29" y="74.00142857142859" width="20" height="20" as="geometry" />
        </mxCell>
        <mxCell id="yuexsXdvfjhhzSVvDChW-225" value="4" style="ellipse;whiteSpace=wrap;html=1;aspect=fixed;fillColor=#d5e8d4;strokeColor=#82b366;" parent="yuexsXdvfjhhzSVvDChW-131" vertex="1">
          <mxGeometry x="344" y="81.00142857142859" width="20" height="20" as="geometry" />
        </mxCell>
        <mxCell id="yuexsXdvfjhhzSVvDChW-152" value="" style="endArrow=none;dashed=1;html=1;rounded=0;exitX=0.5;exitY=1;exitDx=0;exitDy=0;entryX=0.5;entryY=0;entryDx=0;entryDy=0;" parent="1" edge="1">
          <mxGeometry width="50" height="50" relative="1" as="geometry">
            <mxPoint x="489" y="-270" as="sourcePoint" />
            <mxPoint x="1209" y="-270" as="targetPoint" />
          </mxGeometry>
        </mxCell>
        <mxCell id="yuexsXdvfjhhzSVvDChW-172" value="" style="group" parent="1" vertex="1" connectable="0">
          <mxGeometry x="1340" y="180" width="282" height="200" as="geometry" />
        </mxCell>
        <mxCell id="yuexsXdvfjhhzSVvDChW-153" value="Tableau&amp;nbsp; Server - Dev Environment" style="swimlane;whiteSpace=wrap;html=1;fillColor=#e1d5e7;strokeColor=#9673a6;" parent="yuexsXdvfjhhzSVvDChW-172" vertex="1">
          <mxGeometry width="282" height="200" as="geometry" />
        </mxCell>
        <mxCell id="yuexsXdvfjhhzSVvDChW-154" value="" style="group;fillColor=#d5e8d4;strokeColor=#82b366;" parent="yuexsXdvfjhhzSVvDChW-153" vertex="1" connectable="0">
          <mxGeometry x="5" y="43.67183673469401" width="272" height="37.04081632653061" as="geometry" />
        </mxCell>
        <mxCell id="yuexsXdvfjhhzSVvDChW-155" value="Data Sources" style="rounded=1;whiteSpace=wrap;html=1;fillColor=#e1d5e7;strokeColor=#9673a6;verticalAlign=top;" parent="yuexsXdvfjhhzSVvDChW-154" vertex="1">
          <mxGeometry width="272" height="37.04081632653061" as="geometry" />
        </mxCell>
        <mxCell id="yuexsXdvfjhhzSVvDChW-156" value="&lt;font style=&quot;font-size: 8px;&quot;&gt;ds1&lt;/font&gt;" style="rounded=1;whiteSpace=wrap;html=1;container=0;fillColor=#f5f5f5;fontColor=#333333;strokeColor=#666666;" parent="yuexsXdvfjhhzSVvDChW-154" vertex="1">
          <mxGeometry x="4.190000000000055" y="6.94515306122449" width="42.5" height="23.15051020408163" as="geometry" />
        </mxCell>
        <mxCell id="yuexsXdvfjhhzSVvDChW-157" value="&lt;font style=&quot;font-size: 8px;&quot;&gt;ds2&lt;/font&gt;" style="rounded=1;whiteSpace=wrap;html=1;container=0;fillColor=#f5f5f5;fontColor=#333333;strokeColor=#666666;" parent="yuexsXdvfjhhzSVvDChW-154" vertex="1">
          <mxGeometry x="50.940000000000055" y="6.94515306122449" width="42.5" height="23.15051020408163" as="geometry" />
        </mxCell>
        <mxCell id="yuexsXdvfjhhzSVvDChW-158" value="&lt;font style=&quot;font-size: 8px;&quot;&gt;ds3&lt;/font&gt;" style="rounded=1;whiteSpace=wrap;html=1;container=0;fillColor=#f5f5f5;fontColor=#333333;strokeColor=#666666;" parent="yuexsXdvfjhhzSVvDChW-154" vertex="1">
          <mxGeometry x="178.44000000000005" y="6.94515306122449" width="42.5" height="23.15051020408163" as="geometry" />
        </mxCell>
        <mxCell id="yuexsXdvfjhhzSVvDChW-159" value="&lt;font style=&quot;font-size: 8px;&quot;&gt;ds4&lt;/font&gt;" style="rounded=1;whiteSpace=wrap;html=1;container=0;fillColor=#f5f5f5;fontColor=#333333;strokeColor=#666666;" parent="yuexsXdvfjhhzSVvDChW-154" vertex="1">
          <mxGeometry x="225.19000000000005" y="6.94515306122449" width="42.5" height="23.15051020408163" as="geometry" />
        </mxCell>
        <mxCell id="yuexsXdvfjhhzSVvDChW-160" value="" style="group;fillColor=#d5e8d4;strokeColor=#82b366;" parent="yuexsXdvfjhhzSVvDChW-172" vertex="1" connectable="0">
          <mxGeometry x="5" y="81.67183673469401" width="272" height="37.04081632653061" as="geometry" />
        </mxCell>
        <mxCell id="yuexsXdvfjhhzSVvDChW-161" value="Data Projects" style="rounded=1;whiteSpace=wrap;html=1;fillColor=#e1d5e7;strokeColor=#9673a6;verticalAlign=top;" parent="yuexsXdvfjhhzSVvDChW-160" vertex="1">
          <mxGeometry width="272" height="37.04081632653061" as="geometry" />
        </mxCell>
        <mxCell id="yuexsXdvfjhhzSVvDChW-162" value="&lt;font style=&quot;font-size: 8px;&quot;&gt;ds1&lt;/font&gt;" style="rounded=1;whiteSpace=wrap;html=1;container=0;fillColor=#f5f5f5;fontColor=#333333;strokeColor=#666666;" parent="yuexsXdvfjhhzSVvDChW-160" vertex="1">
          <mxGeometry x="4.190000000000055" y="6.94515306122449" width="42.5" height="23.15051020408163" as="geometry" />
        </mxCell>
        <mxCell id="yuexsXdvfjhhzSVvDChW-163" value="&lt;font style=&quot;font-size: 8px;&quot;&gt;ds2&lt;/font&gt;" style="rounded=1;whiteSpace=wrap;html=1;container=0;fillColor=#f5f5f5;fontColor=#333333;strokeColor=#666666;" parent="yuexsXdvfjhhzSVvDChW-160" vertex="1">
          <mxGeometry x="50.940000000000055" y="6.94515306122449" width="42.5" height="23.15051020408163" as="geometry" />
        </mxCell>
        <mxCell id="yuexsXdvfjhhzSVvDChW-164" value="&lt;font style=&quot;font-size: 8px;&quot;&gt;ds3&lt;/font&gt;" style="rounded=1;whiteSpace=wrap;html=1;container=0;fillColor=#f5f5f5;fontColor=#333333;strokeColor=#666666;" parent="yuexsXdvfjhhzSVvDChW-160" vertex="1">
          <mxGeometry x="178.44000000000005" y="6.94515306122449" width="42.5" height="23.15051020408163" as="geometry" />
        </mxCell>
        <mxCell id="yuexsXdvfjhhzSVvDChW-165" value="&lt;font style=&quot;font-size: 8px;&quot;&gt;ds4&lt;/font&gt;" style="rounded=1;whiteSpace=wrap;html=1;container=0;fillColor=#f5f5f5;fontColor=#333333;strokeColor=#666666;" parent="yuexsXdvfjhhzSVvDChW-160" vertex="1">
          <mxGeometry x="225.19000000000005" y="6.94515306122449" width="42.5" height="23.15051020408163" as="geometry" />
        </mxCell>
        <mxCell id="yuexsXdvfjhhzSVvDChW-166" value="" style="group;fillColor=#d5e8d4;strokeColor=#82b366;" parent="yuexsXdvfjhhzSVvDChW-172" vertex="1" connectable="0">
          <mxGeometry x="6" y="119.67183673469401" width="272" height="37.04081632653061" as="geometry" />
        </mxCell>
        <mxCell id="yuexsXdvfjhhzSVvDChW-167" value="External" style="rounded=1;whiteSpace=wrap;html=1;fillColor=#e1d5e7;strokeColor=#9673a6;verticalAlign=top;" parent="yuexsXdvfjhhzSVvDChW-166" vertex="1">
          <mxGeometry width="272" height="37.04081632653061" as="geometry" />
        </mxCell>
        <mxCell id="yuexsXdvfjhhzSVvDChW-168" value="&lt;font style=&quot;font-size: 8px;&quot;&gt;ds1&lt;/font&gt;" style="rounded=1;whiteSpace=wrap;html=1;container=0;fillColor=#f5f5f5;fontColor=#333333;strokeColor=#666666;" parent="yuexsXdvfjhhzSVvDChW-166" vertex="1">
          <mxGeometry x="4.190000000000055" y="6.94515306122449" width="42.5" height="23.15051020408163" as="geometry" />
        </mxCell>
        <mxCell id="yuexsXdvfjhhzSVvDChW-169" value="&lt;font style=&quot;font-size: 8px;&quot;&gt;ds2&lt;/font&gt;" style="rounded=1;whiteSpace=wrap;html=1;container=0;fillColor=#f5f5f5;fontColor=#333333;strokeColor=#666666;" parent="yuexsXdvfjhhzSVvDChW-166" vertex="1">
          <mxGeometry x="50.940000000000055" y="6.94515306122449" width="42.5" height="23.15051020408163" as="geometry" />
        </mxCell>
        <mxCell id="yuexsXdvfjhhzSVvDChW-170" value="&lt;font style=&quot;font-size: 8px;&quot;&gt;ds3&lt;/font&gt;" style="rounded=1;whiteSpace=wrap;html=1;container=0;fillColor=#f5f5f5;fontColor=#333333;strokeColor=#666666;" parent="yuexsXdvfjhhzSVvDChW-166" vertex="1">
          <mxGeometry x="178.44000000000005" y="6.94515306122449" width="42.5" height="23.15051020408163" as="geometry" />
        </mxCell>
        <mxCell id="yuexsXdvfjhhzSVvDChW-171" value="&lt;font style=&quot;font-size: 8px;&quot;&gt;ds4&lt;/font&gt;" style="rounded=1;whiteSpace=wrap;html=1;container=0;fillColor=#f5f5f5;fontColor=#333333;strokeColor=#666666;" parent="yuexsXdvfjhhzSVvDChW-166" vertex="1">
          <mxGeometry x="225.19000000000005" y="6.94515306122449" width="42.5" height="23.15051020408163" as="geometry" />
        </mxCell>
        <mxCell id="yuexsXdvfjhhzSVvDChW-173" value="" style="group" parent="1" vertex="1" connectable="0">
          <mxGeometry x="1340" y="-30" width="282" height="200" as="geometry" />
        </mxCell>
        <mxCell id="yuexsXdvfjhhzSVvDChW-174" value="Tableau&amp;nbsp; Server - TestEnvironment" style="swimlane;whiteSpace=wrap;html=1;fillColor=#e1d5e7;strokeColor=#9673a6;" parent="yuexsXdvfjhhzSVvDChW-173" vertex="1">
          <mxGeometry width="282" height="200" as="geometry" />
        </mxCell>
        <mxCell id="yuexsXdvfjhhzSVvDChW-175" value="" style="group;fillColor=#d5e8d4;strokeColor=#82b366;" parent="yuexsXdvfjhhzSVvDChW-174" vertex="1" connectable="0">
          <mxGeometry x="5" y="43.67183673469401" width="272" height="37.04081632653061" as="geometry" />
        </mxCell>
        <mxCell id="yuexsXdvfjhhzSVvDChW-176" value="Data Sources" style="rounded=1;whiteSpace=wrap;html=1;fillColor=#e1d5e7;strokeColor=#9673a6;verticalAlign=top;" parent="yuexsXdvfjhhzSVvDChW-175" vertex="1">
          <mxGeometry width="272" height="37.04081632653061" as="geometry" />
        </mxCell>
        <mxCell id="yuexsXdvfjhhzSVvDChW-177" value="&lt;font style=&quot;font-size: 8px;&quot;&gt;ds1&lt;/font&gt;" style="rounded=1;whiteSpace=wrap;html=1;container=0;fillColor=#f5f5f5;fontColor=#333333;strokeColor=#666666;" parent="yuexsXdvfjhhzSVvDChW-175" vertex="1">
          <mxGeometry x="4.190000000000055" y="6.94515306122449" width="42.5" height="23.15051020408163" as="geometry" />
        </mxCell>
        <mxCell id="yuexsXdvfjhhzSVvDChW-178" value="&lt;font style=&quot;font-size: 8px;&quot;&gt;ds2&lt;/font&gt;" style="rounded=1;whiteSpace=wrap;html=1;container=0;fillColor=#f5f5f5;fontColor=#333333;strokeColor=#666666;" parent="yuexsXdvfjhhzSVvDChW-175" vertex="1">
          <mxGeometry x="50.940000000000055" y="6.94515306122449" width="42.5" height="23.15051020408163" as="geometry" />
        </mxCell>
        <mxCell id="yuexsXdvfjhhzSVvDChW-179" value="&lt;font style=&quot;font-size: 8px;&quot;&gt;ds3&lt;/font&gt;" style="rounded=1;whiteSpace=wrap;html=1;container=0;fillColor=#f5f5f5;fontColor=#333333;strokeColor=#666666;" parent="yuexsXdvfjhhzSVvDChW-175" vertex="1">
          <mxGeometry x="178.44000000000005" y="6.94515306122449" width="42.5" height="23.15051020408163" as="geometry" />
        </mxCell>
        <mxCell id="yuexsXdvfjhhzSVvDChW-180" value="&lt;font style=&quot;font-size: 8px;&quot;&gt;ds4&lt;/font&gt;" style="rounded=1;whiteSpace=wrap;html=1;container=0;fillColor=#f5f5f5;fontColor=#333333;strokeColor=#666666;" parent="yuexsXdvfjhhzSVvDChW-175" vertex="1">
          <mxGeometry x="225.19000000000005" y="6.94515306122449" width="42.5" height="23.15051020408163" as="geometry" />
        </mxCell>
        <mxCell id="yuexsXdvfjhhzSVvDChW-181" value="" style="group;fillColor=#d5e8d4;strokeColor=#82b366;" parent="yuexsXdvfjhhzSVvDChW-173" vertex="1" connectable="0">
          <mxGeometry x="5" y="81.67183673469401" width="272" height="37.04081632653061" as="geometry" />
        </mxCell>
        <mxCell id="yuexsXdvfjhhzSVvDChW-182" value="Data Projects" style="rounded=1;whiteSpace=wrap;html=1;fillColor=#e1d5e7;strokeColor=#9673a6;verticalAlign=top;" parent="yuexsXdvfjhhzSVvDChW-181" vertex="1">
          <mxGeometry width="272" height="37.04081632653061" as="geometry" />
        </mxCell>
        <mxCell id="yuexsXdvfjhhzSVvDChW-183" value="&lt;font style=&quot;font-size: 8px;&quot;&gt;ds1&lt;/font&gt;" style="rounded=1;whiteSpace=wrap;html=1;container=0;fillColor=#f5f5f5;fontColor=#333333;strokeColor=#666666;" parent="yuexsXdvfjhhzSVvDChW-181" vertex="1">
          <mxGeometry x="4.190000000000055" y="6.94515306122449" width="42.5" height="23.15051020408163" as="geometry" />
        </mxCell>
        <mxCell id="yuexsXdvfjhhzSVvDChW-184" value="&lt;font style=&quot;font-size: 8px;&quot;&gt;ds2&lt;/font&gt;" style="rounded=1;whiteSpace=wrap;html=1;container=0;fillColor=#f5f5f5;fontColor=#333333;strokeColor=#666666;" parent="yuexsXdvfjhhzSVvDChW-181" vertex="1">
          <mxGeometry x="50.940000000000055" y="6.94515306122449" width="42.5" height="23.15051020408163" as="geometry" />
        </mxCell>
        <mxCell id="yuexsXdvfjhhzSVvDChW-185" value="&lt;font style=&quot;font-size: 8px;&quot;&gt;ds3&lt;/font&gt;" style="rounded=1;whiteSpace=wrap;html=1;container=0;fillColor=#f5f5f5;fontColor=#333333;strokeColor=#666666;" parent="yuexsXdvfjhhzSVvDChW-181" vertex="1">
          <mxGeometry x="178.44000000000005" y="6.94515306122449" width="42.5" height="23.15051020408163" as="geometry" />
        </mxCell>
        <mxCell id="yuexsXdvfjhhzSVvDChW-186" value="&lt;font style=&quot;font-size: 8px;&quot;&gt;ds4&lt;/font&gt;" style="rounded=1;whiteSpace=wrap;html=1;container=0;fillColor=#f5f5f5;fontColor=#333333;strokeColor=#666666;" parent="yuexsXdvfjhhzSVvDChW-181" vertex="1">
          <mxGeometry x="225.19000000000005" y="6.94515306122449" width="42.5" height="23.15051020408163" as="geometry" />
        </mxCell>
        <mxCell id="yuexsXdvfjhhzSVvDChW-187" value="" style="group;fillColor=#d5e8d4;strokeColor=#82b366;" parent="yuexsXdvfjhhzSVvDChW-173" vertex="1" connectable="0">
          <mxGeometry x="6" y="119.67183673469401" width="272" height="37.04081632653061" as="geometry" />
        </mxCell>
        <mxCell id="yuexsXdvfjhhzSVvDChW-188" value="External" style="rounded=1;whiteSpace=wrap;html=1;fillColor=#e1d5e7;strokeColor=#9673a6;verticalAlign=top;" parent="yuexsXdvfjhhzSVvDChW-187" vertex="1">
          <mxGeometry width="272" height="37.04081632653061" as="geometry" />
        </mxCell>
        <mxCell id="yuexsXdvfjhhzSVvDChW-189" value="&lt;font style=&quot;font-size: 8px;&quot;&gt;ds1&lt;/font&gt;" style="rounded=1;whiteSpace=wrap;html=1;container=0;fillColor=#f5f5f5;fontColor=#333333;strokeColor=#666666;" parent="yuexsXdvfjhhzSVvDChW-187" vertex="1">
          <mxGeometry x="4.190000000000055" y="6.94515306122449" width="42.5" height="23.15051020408163" as="geometry" />
        </mxCell>
        <mxCell id="yuexsXdvfjhhzSVvDChW-190" value="&lt;font style=&quot;font-size: 8px;&quot;&gt;ds2&lt;/font&gt;" style="rounded=1;whiteSpace=wrap;html=1;container=0;fillColor=#f5f5f5;fontColor=#333333;strokeColor=#666666;" parent="yuexsXdvfjhhzSVvDChW-187" vertex="1">
          <mxGeometry x="50.940000000000055" y="6.94515306122449" width="42.5" height="23.15051020408163" as="geometry" />
        </mxCell>
        <mxCell id="yuexsXdvfjhhzSVvDChW-191" value="&lt;font style=&quot;font-size: 8px;&quot;&gt;ds3&lt;/font&gt;" style="rounded=1;whiteSpace=wrap;html=1;container=0;fillColor=#f5f5f5;fontColor=#333333;strokeColor=#666666;" parent="yuexsXdvfjhhzSVvDChW-187" vertex="1">
          <mxGeometry x="178.44000000000005" y="6.94515306122449" width="42.5" height="23.15051020408163" as="geometry" />
        </mxCell>
        <mxCell id="yuexsXdvfjhhzSVvDChW-192" value="&lt;font style=&quot;font-size: 8px;&quot;&gt;ds4&lt;/font&gt;" style="rounded=1;whiteSpace=wrap;html=1;container=0;fillColor=#f5f5f5;fontColor=#333333;strokeColor=#666666;" parent="yuexsXdvfjhhzSVvDChW-187" vertex="1">
          <mxGeometry x="225.19000000000005" y="6.94515306122449" width="42.5" height="23.15051020408163" as="geometry" />
        </mxCell>
        <mxCell id="yuexsXdvfjhhzSVvDChW-193" value="" style="group" parent="1" vertex="1" connectable="0">
          <mxGeometry x="1340" y="-241.03" width="282" height="200" as="geometry" />
        </mxCell>
        <mxCell id="yuexsXdvfjhhzSVvDChW-194" value="Tableau&amp;nbsp; Server - Prod Environment" style="swimlane;whiteSpace=wrap;html=1;fillColor=#e1d5e7;strokeColor=#9673a6;" parent="yuexsXdvfjhhzSVvDChW-193" vertex="1">
          <mxGeometry width="282" height="200" as="geometry" />
        </mxCell>
        <mxCell id="yuexsXdvfjhhzSVvDChW-195" value="" style="group;fillColor=#d5e8d4;strokeColor=#82b366;" parent="yuexsXdvfjhhzSVvDChW-194" vertex="1" connectable="0">
          <mxGeometry x="5" y="43.67183673469401" width="272" height="37.04081632653061" as="geometry" />
        </mxCell>
        <mxCell id="yuexsXdvfjhhzSVvDChW-196" value="Data Sources" style="rounded=1;whiteSpace=wrap;html=1;fillColor=#e1d5e7;strokeColor=#9673a6;verticalAlign=top;" parent="yuexsXdvfjhhzSVvDChW-195" vertex="1">
          <mxGeometry width="272" height="37.04081632653061" as="geometry" />
        </mxCell>
        <mxCell id="yuexsXdvfjhhzSVvDChW-197" value="&lt;font style=&quot;font-size: 8px;&quot;&gt;ds1&lt;/font&gt;" style="rounded=1;whiteSpace=wrap;html=1;container=0;fillColor=#f5f5f5;fontColor=#333333;strokeColor=#666666;" parent="yuexsXdvfjhhzSVvDChW-195" vertex="1">
          <mxGeometry x="4.190000000000055" y="6.94515306122449" width="42.5" height="23.15051020408163" as="geometry" />
        </mxCell>
        <mxCell id="yuexsXdvfjhhzSVvDChW-198" value="&lt;font style=&quot;font-size: 8px;&quot;&gt;ds2&lt;/font&gt;" style="rounded=1;whiteSpace=wrap;html=1;container=0;fillColor=#f5f5f5;fontColor=#333333;strokeColor=#666666;" parent="yuexsXdvfjhhzSVvDChW-195" vertex="1">
          <mxGeometry x="50.940000000000055" y="6.94515306122449" width="42.5" height="23.15051020408163" as="geometry" />
        </mxCell>
        <mxCell id="yuexsXdvfjhhzSVvDChW-199" value="&lt;font style=&quot;font-size: 8px;&quot;&gt;ds3&lt;/font&gt;" style="rounded=1;whiteSpace=wrap;html=1;container=0;fillColor=#f5f5f5;fontColor=#333333;strokeColor=#666666;" parent="yuexsXdvfjhhzSVvDChW-195" vertex="1">
          <mxGeometry x="178.44000000000005" y="6.94515306122449" width="42.5" height="23.15051020408163" as="geometry" />
        </mxCell>
        <mxCell id="yuexsXdvfjhhzSVvDChW-200" value="&lt;font style=&quot;font-size: 8px;&quot;&gt;ds4&lt;/font&gt;" style="rounded=1;whiteSpace=wrap;html=1;container=0;fillColor=#f5f5f5;fontColor=#333333;strokeColor=#666666;" parent="yuexsXdvfjhhzSVvDChW-195" vertex="1">
          <mxGeometry x="225.19000000000005" y="6.94515306122449" width="42.5" height="23.15051020408163" as="geometry" />
        </mxCell>
        <mxCell id="yuexsXdvfjhhzSVvDChW-201" value="" style="group;fillColor=#d5e8d4;strokeColor=#82b366;" parent="yuexsXdvfjhhzSVvDChW-193" vertex="1" connectable="0">
          <mxGeometry x="5" y="81.67183673469401" width="272" height="37.04081632653061" as="geometry" />
        </mxCell>
        <mxCell id="yuexsXdvfjhhzSVvDChW-202" value="Data Projects" style="rounded=1;whiteSpace=wrap;html=1;fillColor=#e1d5e7;strokeColor=#9673a6;verticalAlign=top;" parent="yuexsXdvfjhhzSVvDChW-201" vertex="1">
          <mxGeometry width="272" height="37.04081632653061" as="geometry" />
        </mxCell>
        <mxCell id="yuexsXdvfjhhzSVvDChW-203" value="&lt;font style=&quot;font-size: 8px;&quot;&gt;ds1&lt;/font&gt;" style="rounded=1;whiteSpace=wrap;html=1;container=0;fillColor=#f5f5f5;fontColor=#333333;strokeColor=#666666;" parent="yuexsXdvfjhhzSVvDChW-201" vertex="1">
          <mxGeometry x="4.190000000000055" y="6.94515306122449" width="42.5" height="23.15051020408163" as="geometry" />
        </mxCell>
        <mxCell id="yuexsXdvfjhhzSVvDChW-204" value="&lt;font style=&quot;font-size: 8px;&quot;&gt;ds2&lt;/font&gt;" style="rounded=1;whiteSpace=wrap;html=1;container=0;fillColor=#f5f5f5;fontColor=#333333;strokeColor=#666666;" parent="yuexsXdvfjhhzSVvDChW-201" vertex="1">
          <mxGeometry x="50.940000000000055" y="6.94515306122449" width="42.5" height="23.15051020408163" as="geometry" />
        </mxCell>
        <mxCell id="yuexsXdvfjhhzSVvDChW-205" value="&lt;font style=&quot;font-size: 8px;&quot;&gt;ds3&lt;/font&gt;" style="rounded=1;whiteSpace=wrap;html=1;container=0;fillColor=#f5f5f5;fontColor=#333333;strokeColor=#666666;" parent="yuexsXdvfjhhzSVvDChW-201" vertex="1">
          <mxGeometry x="178.44000000000005" y="6.94515306122449" width="42.5" height="23.15051020408163" as="geometry" />
        </mxCell>
        <mxCell id="yuexsXdvfjhhzSVvDChW-206" value="&lt;font style=&quot;font-size: 8px;&quot;&gt;ds4&lt;/font&gt;" style="rounded=1;whiteSpace=wrap;html=1;container=0;fillColor=#f5f5f5;fontColor=#333333;strokeColor=#666666;" parent="yuexsXdvfjhhzSVvDChW-201" vertex="1">
          <mxGeometry x="225.19000000000005" y="6.94515306122449" width="42.5" height="23.15051020408163" as="geometry" />
        </mxCell>
        <mxCell id="yuexsXdvfjhhzSVvDChW-207" value="" style="group;fillColor=#d5e8d4;strokeColor=#82b366;" parent="yuexsXdvfjhhzSVvDChW-193" vertex="1" connectable="0">
          <mxGeometry x="6" y="119.67183673469401" width="272" height="37.04081632653061" as="geometry" />
        </mxCell>
        <mxCell id="yuexsXdvfjhhzSVvDChW-208" value="External" style="rounded=1;whiteSpace=wrap;html=1;fillColor=#e1d5e7;strokeColor=#9673a6;verticalAlign=top;" parent="yuexsXdvfjhhzSVvDChW-207" vertex="1">
          <mxGeometry width="272" height="37.04081632653061" as="geometry" />
        </mxCell>
        <mxCell id="yuexsXdvfjhhzSVvDChW-209" value="&lt;font style=&quot;font-size: 8px;&quot;&gt;ds1&lt;/font&gt;" style="rounded=1;whiteSpace=wrap;html=1;container=0;fillColor=#f5f5f5;fontColor=#333333;strokeColor=#666666;" parent="yuexsXdvfjhhzSVvDChW-207" vertex="1">
          <mxGeometry x="4.190000000000055" y="6.94515306122449" width="42.5" height="23.15051020408163" as="geometry" />
        </mxCell>
        <mxCell id="yuexsXdvfjhhzSVvDChW-210" value="&lt;font style=&quot;font-size: 8px;&quot;&gt;ds2&lt;/font&gt;" style="rounded=1;whiteSpace=wrap;html=1;container=0;fillColor=#f5f5f5;fontColor=#333333;strokeColor=#666666;" parent="yuexsXdvfjhhzSVvDChW-207" vertex="1">
          <mxGeometry x="50.940000000000055" y="6.94515306122449" width="42.5" height="23.15051020408163" as="geometry" />
        </mxCell>
        <mxCell id="yuexsXdvfjhhzSVvDChW-211" value="&lt;font style=&quot;font-size: 8px;&quot;&gt;ds3&lt;/font&gt;" style="rounded=1;whiteSpace=wrap;html=1;container=0;fillColor=#f5f5f5;fontColor=#333333;strokeColor=#666666;" parent="yuexsXdvfjhhzSVvDChW-207" vertex="1">
          <mxGeometry x="178.44000000000005" y="6.94515306122449" width="42.5" height="23.15051020408163" as="geometry" />
        </mxCell>
        <mxCell id="yuexsXdvfjhhzSVvDChW-212" value="&lt;font style=&quot;font-size: 8px;&quot;&gt;ds4&lt;/font&gt;" style="rounded=1;whiteSpace=wrap;html=1;container=0;fillColor=#f5f5f5;fontColor=#333333;strokeColor=#666666;" parent="yuexsXdvfjhhzSVvDChW-207" vertex="1">
          <mxGeometry x="225.19000000000005" y="6.94515306122449" width="42.5" height="23.15051020408163" as="geometry" />
        </mxCell>
        <mxCell id="yuexsXdvfjhhzSVvDChW-213" style="edgeStyle=orthogonalEdgeStyle;rounded=0;orthogonalLoop=1;jettySize=auto;html=1;entryX=1;entryY=0.25;entryDx=0;entryDy=0;fillColor=#ffe6cc;strokeColor=#d79b00;" parent="1" source="yuexsXdvfjhhzSVvDChW-19" target="yuexsXdvfjhhzSVvDChW-90" edge="1">
          <mxGeometry relative="1" as="geometry" />
        </mxCell>
        <mxCell id="yuexsXdvfjhhzSVvDChW-215" style="edgeStyle=orthogonalEdgeStyle;rounded=0;orthogonalLoop=1;jettySize=auto;html=1;entryX=0;entryY=0.25;entryDx=0;entryDy=0;fillColor=#dae8fc;strokeColor=#6c8ebf;" parent="1" source="yuexsXdvfjhhzSVvDChW-41" target="yuexsXdvfjhhzSVvDChW-90" edge="1">
          <mxGeometry relative="1" as="geometry" />
        </mxCell>
        <mxCell id="yuexsXdvfjhhzSVvDChW-217" style="edgeStyle=orthogonalEdgeStyle;rounded=0;orthogonalLoop=1;jettySize=auto;html=1;entryX=0;entryY=0.25;entryDx=0;entryDy=0;exitX=0;exitY=0.5;exitDx=0;exitDy=0;fillColor=#d5e8d4;strokeColor=#82b366;" parent="1" source="yuexsXdvfjhhzSVvDChW-103" target="yuexsXdvfjhhzSVvDChW-112" edge="1">
          <mxGeometry relative="1" as="geometry">
            <Array as="points">
              <mxPoint x="660" y="266" />
              <mxPoint x="660" y="70" />
            </Array>
          </mxGeometry>
        </mxCell>
        <mxCell id="yuexsXdvfjhhzSVvDChW-218" style="edgeStyle=orthogonalEdgeStyle;rounded=0;orthogonalLoop=1;jettySize=auto;html=1;entryX=1;entryY=0.5;entryDx=0;entryDy=0;exitX=1;exitY=0.5;exitDx=0;exitDy=0;fillColor=#d5e8d4;strokeColor=#82b366;" parent="1" source="yuexsXdvfjhhzSVvDChW-106" target="yuexsXdvfjhhzSVvDChW-112" edge="1">
          <mxGeometry relative="1" as="geometry">
            <Array as="points">
              <mxPoint x="1010" y="266" />
              <mxPoint x="1010" y="79" />
            </Array>
          </mxGeometry>
        </mxCell>
        <mxCell id="yuexsXdvfjhhzSVvDChW-222" style="edgeStyle=orthogonalEdgeStyle;rounded=0;orthogonalLoop=1;jettySize=auto;html=1;entryX=0;entryY=0;entryDx=0;entryDy=0;exitX=0;exitY=0.75;exitDx=0;exitDy=0;fillColor=#d5e8d4;strokeColor=#82b366;" parent="1" source="yuexsXdvfjhhzSVvDChW-125" target="yuexsXdvfjhhzSVvDChW-135" edge="1">
          <mxGeometry relative="1" as="geometry">
            <Array as="points">
              <mxPoint x="650" y="48" />
              <mxPoint x="650" y="-150" />
              <mxPoint x="694" y="-150" />
              <mxPoint x="694" y="-153" />
            </Array>
          </mxGeometry>
        </mxCell>
        <mxCell id="yuexsXdvfjhhzSVvDChW-223" style="edgeStyle=orthogonalEdgeStyle;rounded=0;orthogonalLoop=1;jettySize=auto;html=1;entryX=1;entryY=0.25;entryDx=0;entryDy=0;exitX=1;exitY=0.5;exitDx=0;exitDy=0;fillColor=#d5e8d4;strokeColor=#82b366;" parent="1" source="yuexsXdvfjhhzSVvDChW-124" target="yuexsXdvfjhhzSVvDChW-134" edge="1">
          <mxGeometry relative="1" as="geometry">
            <Array as="points">
              <mxPoint x="1020" y="42" />
              <mxPoint x="1020" y="-150" />
            </Array>
          </mxGeometry>
        </mxCell>
        <mxCell id="lU6CdYUgjC_pBxSl2gmc-3" value="Azure Pipeline&lt;br&gt;Build + Deploy + Publish" style="text;html=1;strokeColor=#6c8ebf;fillColor=#dae8fc;align=center;verticalAlign=middle;whiteSpace=wrap;rounded=0;rotation=0;" parent="1" vertex="1">
          <mxGeometry x="1202" y="243" width="140" height="30" as="geometry" />
        </mxCell>
        <mxCell id="yuexsXdvfjhhzSVvDChW-227" style="edgeStyle=orthogonalEdgeStyle;rounded=0;orthogonalLoop=1;jettySize=auto;html=1;fillColor=#dae8fc;strokeColor=#6c8ebf;entryX=0.055;entryY=0.873;entryDx=0;entryDy=0;entryPerimeter=0;strokeWidth=3;" parent="1" edge="1">
          <mxGeometry relative="1" as="geometry">
            <mxPoint x="1184" y="77" as="sourcePoint" />
            <mxPoint x="1341.96" y="78.00846938775521" as="targetPoint" />
            <Array as="points">
              <mxPoint x="1184" y="78" />
            </Array>
          </mxGeometry>
        </mxCell>
        <mxCell id="yuexsXdvfjhhzSVvDChW-228" value="Azure Pipeline&lt;br&gt;Build + Deploy + Publish" style="text;html=1;strokeColor=#6c8ebf;fillColor=#dae8fc;align=center;verticalAlign=middle;whiteSpace=wrap;rounded=0;rotation=0;" parent="1" vertex="1">
          <mxGeometry x="1204" y="41" width="140" height="30" as="geometry" />
        </mxCell>
        <mxCell id="yuexsXdvfjhhzSVvDChW-229" style="edgeStyle=orthogonalEdgeStyle;rounded=0;orthogonalLoop=1;jettySize=auto;html=1;fillColor=#dae8fc;strokeColor=#6c8ebf;entryX=0.055;entryY=0.873;entryDx=0;entryDy=0;entryPerimeter=0;strokeWidth=3;" parent="1" edge="1">
          <mxGeometry relative="1" as="geometry">
            <mxPoint x="1184.04" y="290" as="sourcePoint" />
            <mxPoint x="1342" y="291.0084693877552" as="targetPoint" />
            <Array as="points">
              <mxPoint x="1184.04" y="291" />
            </Array>
          </mxGeometry>
        </mxCell>
        <mxCell id="yuexsXdvfjhhzSVvDChW-230" style="edgeStyle=orthogonalEdgeStyle;rounded=0;orthogonalLoop=1;jettySize=auto;html=1;fillColor=#dae8fc;strokeColor=#6c8ebf;entryX=0.055;entryY=0.873;entryDx=0;entryDy=0;entryPerimeter=0;strokeWidth=3;" parent="1" edge="1">
          <mxGeometry relative="1" as="geometry">
            <mxPoint x="1184" y="-134" as="sourcePoint" />
            <mxPoint x="1341.96" y="-132.9915306122448" as="targetPoint" />
            <Array as="points">
              <mxPoint x="1184" y="-133" />
            </Array>
          </mxGeometry>
        </mxCell>
        <mxCell id="yuexsXdvfjhhzSVvDChW-231" value="Azure Pipeline&lt;br&gt;Build + Deploy + Publish" style="text;html=1;strokeColor=#6c8ebf;fillColor=#dae8fc;align=center;verticalAlign=middle;whiteSpace=wrap;rounded=0;rotation=0;" parent="1" vertex="1">
          <mxGeometry x="1204" y="-170" width="140" height="30" as="geometry" />
        </mxCell>
      </root>
    </mxGraphModel>
  </diagram>
</mxfile>
